<mxfile host="Electron" agent="Mozilla/5.0 (X11; Linux x86_64) AppleWebKit/537.36 (KHTML, like Gecko) draw.io/24.7.5 Chrome/126.0.6478.183 Electron/31.3.0 Safari/537.36" version="24.7.5">
  <diagram id="fiNaKribxUjh06MT8xYj" name="Page-1">
    <mxGraphModel dx="943" dy="578" grid="1" gridSize="10" guides="1" tooltips="1" connect="1" arrows="1" fold="1" page="1" pageScale="1" pageWidth="850" pageHeight="1100" math="0" shadow="0">
      <root>
        <mxCell id="0" />
        <mxCell id="1" parent="0" />
        <mxCell id="c4bkTZfljf2fLF1p8XpX-1" value="" style="rounded=1;whiteSpace=wrap;html=1;" vertex="1" parent="1">
          <mxGeometry x="290" y="200" width="700" height="330" as="geometry" />
        </mxCell>
        <mxCell id="c4bkTZfljf2fLF1p8XpX-4" value="UI Service" style="rounded=1;whiteSpace=wrap;html=1;" vertex="1" parent="1">
          <mxGeometry x="550" y="232" width="120" height="60" as="geometry" />
        </mxCell>
        <mxCell id="c4bkTZfljf2fLF1p8XpX-31" style="edgeStyle=orthogonalEdgeStyle;rounded=0;orthogonalLoop=1;jettySize=auto;html=1;exitX=1;exitY=0.5;exitDx=0;exitDy=0;entryX=0;entryY=0.5;entryDx=0;entryDy=0;" edge="1" parent="1" source="c4bkTZfljf2fLF1p8XpX-5" target="c4bkTZfljf2fLF1p8XpX-6">
          <mxGeometry relative="1" as="geometry" />
        </mxCell>
        <mxCell id="c4bkTZfljf2fLF1p8XpX-32" style="edgeStyle=orthogonalEdgeStyle;rounded=0;orthogonalLoop=1;jettySize=auto;html=1;exitX=1;exitY=0.5;exitDx=0;exitDy=0;entryX=0;entryY=0.5;entryDx=0;entryDy=0;curved=1;" edge="1" parent="1" source="c4bkTZfljf2fLF1p8XpX-5" target="c4bkTZfljf2fLF1p8XpX-4">
          <mxGeometry relative="1" as="geometry" />
        </mxCell>
        <mxCell id="c4bkTZfljf2fLF1p8XpX-33" style="edgeStyle=orthogonalEdgeStyle;rounded=0;orthogonalLoop=1;jettySize=auto;html=1;exitX=1;exitY=0.5;exitDx=0;exitDy=0;entryX=0;entryY=0.5;entryDx=0;entryDy=0;curved=1;" edge="1" parent="1" source="c4bkTZfljf2fLF1p8XpX-5" target="c4bkTZfljf2fLF1p8XpX-7">
          <mxGeometry relative="1" as="geometry" />
        </mxCell>
        <mxCell id="c4bkTZfljf2fLF1p8XpX-5" value="Reverse Proxy" style="rounded=1;whiteSpace=wrap;html=1;" vertex="1" parent="1">
          <mxGeometry x="306.75" y="340" width="120" height="60" as="geometry" />
        </mxCell>
        <mxCell id="c4bkTZfljf2fLF1p8XpX-35" style="edgeStyle=orthogonalEdgeStyle;rounded=0;orthogonalLoop=1;jettySize=auto;html=1;exitX=1;exitY=0.5;exitDx=0;exitDy=0;entryX=0.5;entryY=0;entryDx=0;entryDy=0;startArrow=classic;startFill=1;curved=1;" edge="1" parent="1" source="c4bkTZfljf2fLF1p8XpX-6" target="c4bkTZfljf2fLF1p8XpX-23">
          <mxGeometry relative="1" as="geometry" />
        </mxCell>
        <mxCell id="c4bkTZfljf2fLF1p8XpX-34" style="edgeStyle=orthogonalEdgeStyle;rounded=0;orthogonalLoop=1;jettySize=auto;html=1;exitX=1;exitY=0.5;exitDx=0;exitDy=0;entryX=0.5;entryY=1;entryDx=0;entryDy=0;startArrow=classic;startFill=1;curved=1;" edge="1" parent="1" source="c4bkTZfljf2fLF1p8XpX-7" target="c4bkTZfljf2fLF1p8XpX-23">
          <mxGeometry relative="1" as="geometry" />
        </mxCell>
        <mxCell id="c4bkTZfljf2fLF1p8XpX-39" style="edgeStyle=orthogonalEdgeStyle;rounded=0;orthogonalLoop=1;jettySize=auto;html=1;exitX=1;exitY=1;exitDx=0;exitDy=0;entryX=0.5;entryY=1;entryDx=0;entryDy=0;startArrow=classic;startFill=1;curved=1;" edge="1" parent="1" source="c4bkTZfljf2fLF1p8XpX-7" target="c4bkTZfljf2fLF1p8XpX-9">
          <mxGeometry relative="1" as="geometry">
            <Array as="points">
              <mxPoint x="870" y="510" />
            </Array>
          </mxGeometry>
        </mxCell>
        <mxCell id="c4bkTZfljf2fLF1p8XpX-7" value="Product Service" style="rounded=1;whiteSpace=wrap;html=1;" vertex="1" parent="1">
          <mxGeometry x="550" y="450" width="120" height="60" as="geometry" />
        </mxCell>
        <mxCell id="c4bkTZfljf2fLF1p8XpX-40" style="edgeStyle=orthogonalEdgeStyle;rounded=0;orthogonalLoop=1;jettySize=auto;html=1;exitX=0.5;exitY=0;exitDx=0;exitDy=0;entryX=1;entryY=0;entryDx=0;entryDy=0;startArrow=classic;startFill=1;curved=1;" edge="1" parent="1" source="c4bkTZfljf2fLF1p8XpX-9" target="c4bkTZfljf2fLF1p8XpX-6">
          <mxGeometry relative="1" as="geometry">
            <Array as="points">
              <mxPoint x="870" y="340" />
            </Array>
          </mxGeometry>
        </mxCell>
        <mxCell id="c4bkTZfljf2fLF1p8XpX-41" style="edgeStyle=orthogonalEdgeStyle;rounded=0;orthogonalLoop=1;jettySize=auto;html=1;exitX=1;exitY=0.7;exitDx=0;exitDy=0;entryX=1;entryY=0.5;entryDx=0;entryDy=0;curved=1;startArrow=classic;startFill=1;" edge="1" parent="1" source="c4bkTZfljf2fLF1p8XpX-9" target="c4bkTZfljf2fLF1p8XpX-21">
          <mxGeometry relative="1" as="geometry">
            <Array as="points">
              <mxPoint x="970" y="445" />
              <mxPoint x="970" y="262" />
            </Array>
          </mxGeometry>
        </mxCell>
        <mxCell id="c4bkTZfljf2fLF1p8XpX-9" value="" style="shape=datastore;whiteSpace=wrap;html=1;" vertex="1" parent="1">
          <mxGeometry x="840" y="403" width="60" height="60" as="geometry" />
        </mxCell>
        <mxCell id="c4bkTZfljf2fLF1p8XpX-14" value="" style="shape=image;verticalLabelPosition=bottom;labelBackgroundColor=default;verticalAlign=top;aspect=fixed;imageAspect=0;image=https://miro.medium.com/v2/resize:fit:1200/0*mjG1YdoT7xPcnznN.jpg;imageBorder=default;" vertex="1" parent="1">
          <mxGeometry x="325.59" y="320" width="82.33" height="33" as="geometry" />
        </mxCell>
        <mxCell id="c4bkTZfljf2fLF1p8XpX-16" value="" style="shape=image;verticalLabelPosition=bottom;labelBackgroundColor=default;verticalAlign=top;aspect=fixed;imageAspect=0;image=data:image/png,iVBORw0KGgoAAAANSUhEUgAAAykAAAEFCAYAAADnm6gOAAAABHNCSVQICAgIfAhkiAAAABl0RVh0U29mdHdhcmUAZ25vbWUtc2NyZWVuc2hvdO8Dvz4AAAAtdEVYdENyZWF0aW9uIFRpbWUATW9uIDEyIEF1ZyAyMDI0IDA4OjI4OjQ0IFBNIElEVOVTFWMAACAASURBVHic7N13fNP3gT7wx3tvWzIGYxswxuxAQGLvESCQBEuORVsrDW3vQtLrdVyvyfWSXH/d7fWuvTa9a9LIGTJIJgHCJmwCFgazh8EGm2Uk773t3x8mbmgY2h+N5/1PXrW/38/3ycuprUf6DJ++vr4+EBERERERuQhf0QGIiIiIiIi+iCWFiIiIiIhcir/oAERERADw0cc6nCo+ieEj0jFm9FhMmSIXHYmIiATx4ZoUIiIS7c03X8OBg3vv+9qC+YuxenU2MjPHCEpFRESisKQQEZFQ27dvwa9/87OHfn/16mxkrc5GYmKSE1MREZFIXJNCRERCFRUZHvn9jRs34KV1a/GhNg/t7e1OSkVERCKxpBARkVD19XWPvaaurhZvv/0W1r28Ftt3fOKEVEREJBJLChERuY1r10rx61//FN//wSs4duyI6DhEROQg3N2LiIjczsmTRTh5sggLFyzB6tXZGDVqtOhIRERkR/wkhYiI3Nane3fhpXUv4k9/+m8YjXdFxyEiIjthSSEiIrfW19cHfUE+Xlr3IrT576Gzs0N0JCIishFLChEReYTa2hr85S9/wkvr1mLHzq2i4xARkQ1YUoiIyKOUlV3Fr371//CDf/k2Cgs/Ex2HiIiswIXzRETkkU6cOI4TJ45j0cKlWL06GxkZmaIjERGRmfhJChERebQ9n+7EupfX4q23fg+TySg6DhERmYElhYiIPF5PTw90ei1eWvci1q9/H11dnaIjERHRI7CkEBGR16ipqcb//t8f8dK6tdi5a5voOERE9BAsKURE5HVKS6/gl7/8Cf7lh9+B4fgx0XGIiOjvcOE8ERF5raKiQhQVFWLx4qew+rlsjBw5SnQkIiICP0khIiLC7t07sO7ltfjzn/+AqiqT6DhERF6PJYWIiAhAd3c3Nug+xLp1L2LDhg/R3d0tOhIRkddiSSEiIvqCquoq/Pl//4CX1r2I8vLrouMQEXkllhQiIqIHuHq1BG/+x6ssKkREArCkEBERPUR5+XUWFSIiAVhSiIiIHqG8/DqOHDkgOgYRkVdhSSEiInqMkyeLREcgIvIqLClERESPcfpMMVpbW0XHICLyGiwpREREZrhy5bLoCEREXoMlhYiIiIiIXApLChERERERuRSWFCIiIiIiciksKURERERE5FJYUoiIiIiIyKWwpBARERERkUthSSEiIiIiIpfCkkJERERERC6FJYWIiIiIiFwKSwoREREREbkUlhQiIiIiInIpLClERERERORSWFKIiIiIiMilsKQQEREREZFLYUkhIiIiIiKXwpJCREREREQuhSWFiIiIiIhcCksKERERERG5FJYUIiIiIiJyKSwpRERERETkUlhSiIiIiIjIpbCkEBERERGRS2FJISIiIiIil8KSQkRERERELoUlhYiIiIiIXApLChERERERuRSWFCIiIiIiciksKURERERE5FJYUoiIiIiIyKWwpBARERERkUthSSEiIiIiIpfCkkJERERERC6FJYWIiIiIiFwKSwoREREREbkUlhQiIiIiInIpLClERERERORSWFKIiIiIiMilsKQQEREREZFLYUkhIiIiIiKXwpJCREREREQuhSWFiIiIiIhcCksKERERERG5FJYUIiIiIiJyKSwpRERERETkUlhSiIiIiIjIpbCkEBERERGRS2FJISIiIiIil8KSQkRERERELoUlhYiIiIiIXApLChERERERuRSWFCIiIiIiciksKURERERE5FJYUoiIiIiIyKWwpBARERERkUvxFx2AiIiIiMjTdPQ0o6L5OGrar+Nu62X0oReSkJGIDRqKpLDxiA4cLDqiS/OakvLRxzocPnTgvq9NmzYTixYtRUxMrJhQRH+nrPEw6jpuYFjkTMQGpYiOQ0RERBYqbTyEK/X7cKVhP5q7qu773sW6HQCAAN8QjI5ZgszopRgRNVtETJfn8SXl4MF90OvzceHiuS997/SZYhRsXA+FIgeKrBwB6YiAa42f4WztZpQ1HkZbd8PA1xNDM5ESPgVPxCsQHzxcYEKifq2trbhy5TJGjx6LwMBA0XGIUHTCgJLLF3G55BJKSi7B398fEydMQkZGJsaMGYf09AzREcmLGNsuo9CowbnaLY+9tqu3DWdqNuFMzSaMi10JuVQNacgoJ6R0Hz59fX19okM4wuXLF6HTa7F//6dmXT9mzDgosnIwZ858Bycj6lfdfg0GkwanqgseeV2QXwTkklzIpGoE+oY6KR1Rv6ITBhw6uA+XSy6htPTKwNcnTpiEkRmjsHzZSgwdmmrTM/75n1/C6TPFNiZ1vN/9558wceIk0TEIQFlZKXR6LXbv3v7QawIDA6FUrkG2UoXw8AgnpiNv09bdAINJg0KTBt29HVaN4e8bBLlEDZlEjRD/KDsndE8eV1Jqa2ug1+dDp9eit7fX4vvnzV0IhSIHmZljHJCOqP/dE4MpD4VGDdp7Gs2+TxIyEjKJGhPinnFgOqJ+N2/egE6vxdatmx55XUREJLKz1yBbuQb+/tZ9OM+SQuZqaWmBTq+FTqdFe3ubWfekpKRCqVBh2bKVDk5H3qi4WgeDKQ817dftMl5ccBpkklxMilfaZTx35lEl5eNNeuj1+aisvGPTOD4+vlAqcqBQ5CAuLt5O6YiAszWbYTBpYGwrsXqM9Kg5kEnUSI2Q2TEZUb+urq6BF4GNjQ2Pv+GeURmZUGavwby5Cy1+JksKmWPHjq3Q6bUoL79m1f0y2XQolSpMeuJJOycjb1TWeBiFxjxcbzrqkPHTIqZDLs3F8MhZDhnfHXhESTl69DB0+nycsfMfOak0EQpFDlY/l23Xccn7VDQdR6FJg6sNB+w25uSE5yGXqBETNNRuY5J327t3N3R6La5cuWz1GPPnL0K2cg1GjjR/bjVLCj3KqVMnoNNrUVhonxeDz6zKglKpwqBBSXYZj7xLVXspDMY8nK7Z6JTnTYxbDZk0FwnBI5zyPFfi1iWltPQq9Hotdu/Z4dDnjBs3AYqsHMyaNdehzyHPU9dxEwZTHk5UaR0yfqh/LOTSXMgkavj5BDjkGeT5Llw4B51Oi0OH99tlvICAwIEpYOHh4Y+9niWFHqSy8jZ0Oi02bbb/i8HY2DgolSoolSr4wMfu45Pn6extQaExDwaTBh09zU59dpBfOGQSNeTSXAT6hjn12SK5ZUlpamqETp8PvV6Ljg7rFihZY8H8xVAocpCRkem0Z5J76u3rHlh30tJd4/DnDQodA5lEjbGxyx3+LPIc1TXV0Ou00OkdU6JTU9KQnb0GS5eueOR1LCn0Rb29vdDptdDrtKitq3Xos8aMHgelUoXZs+c59Dnk3s7UfAyDSQNT21WhOSQh6ffWpj4rNIezuF1J2bp1E3T6fNy8WSHk+X5+/gPrVXi+Cj3IhbrtMBg1uNN63unPHhW9EDKJGsnhfCFFj/bRx3rodFoYjZUOf9b06bOQrVyD8eMnPvD7LCn0uQMH90Kn0+LSpQtOfe6CBYuhVK7BSG5ZTF9Q3lSIQpMGpQ2HREe5z4io2ZBL1EiNkIuO4lBuU1KOFxVCr9fixInjoqMAAAYNSoJCocKzz2SJjkIu4lbLKRQa83C5frfoKJgq+SrkEjUiAweJjkIupn8NnxZnzpxy+rOzsp5HtnIN4uMT7vv6c6uXoc7B75jbA0uK41h6bIAjBAQEIvveFLCIiEhhOUi82o4KGIwanKzeYPNYEQESyKRqyCVqAOjfqtiYh6Yuo81jT47Phkyq9tjDn12+pFRUXIdOn4/t2x9/MI4IEyY8AUVWDmbM4Gmh3qqx8y4MpjwYTHmio9wnIkAKuVQNmSRXdBRyAdeu9Z8rsWvXw8+VcIbExEHIVq6BXD4Dfn5++OhjHdav/0BoJnOxpNhffX0ddPemHPb09IiOAwAYOjQFSuUaLOeWxV6np68ThUYNDKY8tHbX2TzeFMlXIJeoERV4/yYNDZ2VMJg0OG563+ZnhPrHQCbJhVyqhp+PZx2y67Ilpa2tDXp9PvQFWjQ3O3eBkjUWLVwKhSKHp9t6meOm91Bo0qCx867oKA81JGwiZFI1MqMXi45CArS2tgy8CGxrM+9cCXowlhT72rLlI+j0Wty+fUt0lAeSTZ3Wv2XxpCmio5ATnK/dikKTBndbL9o81sio+ZBL1Rga/ujtrm82F8Ng0uByve2fICaGjoZcosbY2EevAXQnLllSdu7aBr0+H9eulYqOYpGAgMCB9SpRUdGi45ADXa7fA4MpDzebXX8e/efGxDwFmVSNpNBxoqOQk+zc2X+uxPXr1p0rQfdjSbEPw/Fj0Ou0OFlcJDqKWVatWg2lQoWkpMGio5AD3Gg+CYNJg5L6vTaPJQ0ZBblUjXGxln0Kd752GwwmDSpbbV+LlRG9ADKJGkPDJ9s8lmguVVJOnToJvV6LY4WfiY5ik8GDk6FQ5GDVyudERyE7q2w9j0JjHi7UbRMdxSq+Pn792xhKchEWwINKPdWp0yeh17n/71JXw5Jim4qKcuj0Wpedvv0oMTGxyFau6d+y2IdbFnuChs47KDRpUGSyfbppsF/kvenVagT4Bls1Rk9f18CuoK3dtq/Re9hUM3fiEiXlzp1b0OnzsdkBe6GL9MQTk6HIysG0aTNFRyEbtXTXwmDUoNCkQW9ft+g4NosOGgK5RI0nE1Sio5AdVVbegU6vxaZNBaKjeCSWFOt0dHRAp9dCp9OiublJdBybjB49FkqFCnPmzBcdhazUh757f8/z0Nxlsnm8J+KzIJOoER88zA7pgLqOGyg05eFkVb7NY4UHSCCX5EImVbvleUBCS0p3dzf0ei10+nzU19u+QMlVLVm8DApFDoYPTxcdhaxwsiofhSYN6jpuio5idynhUyCTqjEyimcEuLO+vr6BF4G1tY4/l8dbsaRYbs+endDptSgtvSI6il3Nn78Y2UoVRo4cJToKWeBi3U4YTHm43XLG5rGGRU6HTKLG8EjHvBFd3mSAwZSHqw0HbB5rcNgEyCS5GB2z1PZgTiSspOzduxv6gnyUlFwS8XinCwoKHlivwq0N3cPVhgMwmPJQ3mQQHcXhxseugkyaC2kI/+C6m4MH90Gn1+LiReefy+NtWFLMd+7cGej0Whw5clB0FIcJCAjoP7VesQaRkfy77sput5yBwZSHi3U7bR4rLjgVMokak+KVdkj2eGdrNqHQpIGpzfaiPzpmKWSSXAwOm2CHZI7n9JJy/vxZ6PRaHD58wJmPdRnJySlQKHLw9IpnREehhzC1XUGhSYOzNZtER3GqAN/g/vUqUjWC/fgH19WVlFyCTqfFvv17REfxGiwpj1dVZYJOp0XBxvWiozhNcnIKspUqLF++SnQU+jvNXSYUmvJgMGrQB9te7vr7BA6cdxLi79zNkbp62+5tjaxBe49tUyZ94HPv3yMX4QESOyV0DKeVFJPJCL0+36t+cT3K5MlToMjKgUw2XXQUuqe9p+neIUsadPV671atccFpkEvUeCJeIToKPUB9Qz3097YU7u52//VR7oQl5dEKNq6HTqdFVZXt8/zd0dSpcigVazB5MrcsdgVFpg9QaNKgofOOzWONjV0BuUSNxNDRdkhmver2azCYNDhVbfu6w6jAJMglakyRfMUOyRzDKSVFX5APvT7fa39xPcpTS1dAochBWtpw0VG82unqAhSa8lDdXiY6issYFjkDMkmuw+bbkuW2fPIxdDotbt/2vPVR7oAl5cGOHDkInV6Lc+dsn+fvCVaufA7ZShWSkoaIjuKVSur3wmDS4EbzSZvHSg6fBLlEjYzohXZIZj9ljUdgMOXhWqPtOzgODZ8MmUSNjOgFdkhmXw4tKYcO7YdOr8WFC+cc9QiPEBISOrBeJSwsXHQcr3Kt8SgMJg3KGo+IjuKy7L1zCVnu+PFC6PRanDx5XHQUr8aScr/S0ivQ6bXYs8f2ef6eJiYmFkqFCkqlCr6+vqLjeIW7rRdRaNLgfO1Wm8eKDEyEXKLGVMnX7JDMcU5V62Ew5aG63fazsFzl06IvckhJuXz5IvQF+di3j3OlLZGSkgaFIgfLl1l2CBBZrqb9OgpNGpyq1ouO4haC/SIG1qsE+IaIjuM1btyogE6vxbZtm0VHIbCkfK65uQm6e1MOOzo6RMdxaZmZY6BUrsFcblnsMK3ddQPni/T0ddo8nkzyNcgkakQGJtohneO19zTeW6+SZ/NUdT+fwHvnveQi1D/GTgmtZ9eSUldXC50+H3q9Fj09PfYa1utMmSKDIkuFKVNkoqN4nK7e9nvrTvLQ3tMgOo7bkYRkQC7Jxfg4bvzgSJ2dHQMvApua3PtcCU/CkgJs374FOr0WFRXloqO4lfnzFkGpVCEjI1N0FI9ysnoDDEYNajsqbB5rVPRCyCRqJIe75//HjW0lMBg1OFtr+5tasUEpkEnVmByfbYdk1rNbSdm0qQA6fT4qK2/bYzgCsHzZSigUOUhJSRMdxSOcq92CQqMGxrbLoqO4vfSouZBJcpEawSJtb59+uhM6nRZXPexcCU/gzSXlZHER9DotDMePiY7itvz9/aFUrkG2UoXIyCjRcdxaacMhFJo0KG8qtHmsQaGjIZOoMTZ2hR2SiXe14QAKTRpUNNk+PTg1Qg65RI0RUbPtkMxyNpeUo8eOQK/X4vTpYntloi8ICwuHQpEDpSIHISGhouO4pYrmIhiMGlxp2C86isd5MiEHMokaMUHJoqO4vXPnz0Cn8+xzJdydN5aU27dvQafXYsuWj0RH8RjJyUOhVKiwgkcRWMzUdhUGkwZnaj62eaxQ/5h705hz4ecTaId0ruVEVT4MdjqIekLcs5BJ1JCEOPdQcqtLSlnZVej1+di1e7u9M9EDpKUNh0KRg6eWekbTd4b6jlsoNGlwokorOopHC/OPg0yaC7lEDV8ff9Fx3E5VlQk6vRYFBdye3dV5U0np6emBTq+FTqdFfX2d6DgeacoUOZRKFZ6cPFV0FJfX0dM8MFW7s7fF5vEmxWdDLlUjNijFDulcV0t3DQzGPBSaNOjts23L+kDfMMiluZBJ1Ajyc84mTxaXlKamJugLtNDr89He3u6oXPQQMtl0KLJyuA/7I/T29cBgyoPBpEFzV7XoOF5jUOhYyKW5GBOzXHQUt7Fx4wbo9FqYTEbRUcgM3lJS9u//FDq9FpcvXxQdxSusfPpZKJVrMHgwtyx+kNM1G2Ew5qGqvdTmsYZHzoJcqkZaxDQ7JHMfla3nUWjU4EKd7R8sJASPgEyai4lxq+2Q7NEsKinbtm2GTp+PGzfKHRiJzPH0imegUOQgOdmz3wWw1MW6HSg0aXCnhdteizIqetG9xYdPiI7isj777BB0ei3Onj0tOgpZwNNLyqVLF6DTaXHg4F7RUbxOdHQMlEoVspUq+Pr6iY7jEq43HUWhMQ9ljYdtHis+eDjkUrVTXli7ssv1e2AwaXCz+ZTNY/UXvlykRTjuUHKzSkpRkQF6vRZFJwwOC0KWi4iIHFivEhQULDqOULdaTsNg1OBS/W7RUeged9vG0RnKyq5Cp9Ni954doqOQFTy1pNTW1UJ/bze53t5e0XG8WuaoMVAqVZg71/UO1nOWmvbrMJjyUFyts3msAN8QyCVqyKRqBPtF2CGdZzCY3oPBpEFj512bx5oUr4RMkou4YPtv8vTIknLjRjl0+nzu0e/ihg9Ph0KRgyWLl4mO4nRNXUYUGvundpHriQxMhEySC5kkV3QUoZqbm6HX978I5DRZ9+WJJWXT5o3Q6bTcmdPFzJu3EErlGozyoi2Lu3s7UGjSwGDSoK3b9iMCxseugkyqhjQkww7pPE9j110YjHkwmPJsHivEP6p/EwKJGv6+QXZI1++BJaW9vf3eH9R8NDdzj353MW3aTCiycvDEE5NFR3GK46b3YTBp0NBZKToKPcaQsCcgl6oxKnqR6ChOt33HJ9DptKiouC46CtnIk0pKYeFR6PRanDp1QnQUegg/P39kK/tPrY+KihYdx6HseURASvgUyKRqjIyaZ4dknu9WyykUGvNw2Q4zUaQhoyCXqjEu1j6Hkn+ppOzavR16vRZlZbYvUCIxVq18DgqFymMX4ZXUf4pCkwY3m7nttbsZE7MMMqkaSaFjRUdxuOLiE9DptTAYjoqOQnbiCSWlvPwadHotduzYKjoKmWnIkGQolWvwtAduWdzSXYPtN95ASb3t66CiAwdDJlVjSsIaOyTzPhfqtsNgzMOdVtvX9GZEL8CyoW8gzD/OpnEGSsrp0yeh0+fj2LEjNocj8aKiogfWqwQEeMb+35WtF2AwaXC+dpvoKGQDXx9/yCW5kEnVNv8Cc0V37tyGTq/F5s0bRUchO3PnktLe3gbdvXUnLS22b+FKzjflSVn/lsVPesYhundaz0N79UW099g6Y8cHcmn/VKPwgAS7ZPNW/bujalBoykOLjbujBvtFQJX+jk1vSvr09fX1afLeRl7e2zaFIdeUnp6BV3/0BlJT3ffU+u6+Thyq/CMMRg16+rpExyE7iQlKhkyixpMJOaKj2EVvb+/Ai8C6ulrRccgB3LWk7N69HTrOkPAYTz/9LJQKFYYMcd9DdNu6G/Dbs7ZvA5wZswRyiRqDwybYIRV9zp7nzH1v/DGE+EdZda9fatqQN1hQPFdtbQ3OnCnGxAmTER0dIzqOxaraS6G9+iJK6j9FH7jrjCdp72lEaeMhXG04gEnxStFxbHLgwF78+tc/w85d29De3iY6DjnI0iXLkZg4SHQMi7z55mv44EMNi7MHuXLlMvbt24PEQYOQmjpMdByrbCr/AWrarV+nlxQ6DouG/BBzBr3MHSQdINg/EiOiZiMlYirauxtQ01Fu9Vi1HeUYE2Pdxk5+DQ2mN6x+MrmF+vp6tywqLV01+J8Li9HazT+unqy5qwpV7aUYHbNUdBSr/PFP/4W33vo9qqurREchB3O3kvLmm6/xzBMP1dHRjoMH9yE1Nc3tisqhyj+iuHqDVfeG+cdh9qCXsCLlJ5CEjLRzMvp70YGDMSZ2OWKCklHfcQst3ZZPAfu8jKZETLX4Xl+L7yC3VF5+HcXFRaJjWOTQ3T+KjkBOcqluF87UfCQ6hsWyFCtQULBedAyiL2FB8Q7u+HO+VLfLqvueTMiBOkOLadIX4evDAy+daVzsSqgztJib9E8I8bN86pa1P3OWFC9yueSi6Ahma+is5AJ5L+NuP29N3tuoqbFtYSGRI5w+Xex2L1zJejvdaKe2S3W7UNVu2dqoEVFz8JX0d7E0+ceICXLfdTjuLsA3GDMTvwV1hhaT4hUW3VvVXmpVUWFJ8SIlly+JjmC2ytbz6LB5xw9yJ9ebjqHZxt1EnKWzsxN791r3zhCRo50+w+3ZvYnh+DE0NjaKjmGWiubjZl+bEJKOp1N+iueHv4XUCM/Y0cwTxAWnYdnQN6Ea8TaGR840+z5LfvafY0nxIjduVoiOYLa6jpuiI5AADZ3ucep1cXERbt3if6Pkmg7yUxSvc/z4MdERzFLVVmbWdbMHrcMLI7WYEPesgxORtYZFTkfOiP/DipSfmHW9uT/7L2JJIZfU1csdkrxRd1+H6AhmuWu8KzoC0UOVl1u/axK5p1u33eNNE3Omeo2LXYnZg9Yh0C/MCYnIVhPjVpt1wryl0/wAlhQiIovV19eJjkBE5HbM2a2T607cjzk/M2t2amVJISIiIiIil+IvOgARERERkTfq7GnBrZYzqGw9j1stZ9DSXY3OnlZ09bais7cVbd0NAIBAvzAE+AYj0DcUAb4hCPANQYh/FOKDhyMmaChig1IQG5SCqED3OcvpcVhSiIiIiMhr1XXcRGNX5UO/Hx80HGEBcXZ7XmnjYZQ2HER5kwHV7eYtKO/saUFnTwtaUHP/WA2H7vvfwX6RGBO7DKNjnkJK+BS7ZRaBJYWIiIiIvJKp7Qr+79Izj73u3ybZdtZceZMBRVUf4lrjZw7dHKi9pxEnq9bjZNV6hAXEYVzsSkyXvohQ/1iHPdNRWFKIiIiIyCtdrt9j1nUVzceREj7V4vEbOu9g961foKT+U4vvtVVLVw0Kje+iuGoDpkm/jmnSr8PfN9jpOazFhfNERERERHZ2qPKP+MP5hUIKyhd19rbiYOX/4A/nF+Jqw36hWSzhVSUlMDAQkydPhSrna5g/bxHi4uJFRyIiIiI7mDhhkugIRACAvr4ebCr/Fxyq/KPoKPdp6a6FruwVnK/dKjqKWbxiuteyZSshk02DbOo0BAX97WOumppqfLJ1EzZuXI/m5maBCYmIXFtISCiUShVGjBiJzZs34sQJg+hIRBicNARZihzMnTMf0dExaGxsxL79e1Cgz8ftO7dExyMv1N3bgQ1lL+F60zHRUR6oD73YVP5DdPd1YmLcc6LjPJJHl5QpU+RQZD2PKVPkD/x+XFw81LlrMX/eQhRs3IBPPvnYyQmJiFzfksXLoFSqMGzYCADAzBmz8cknH2ODTovbbnLSNXmWgIBAKBTPQ5GVg+jomIGvR0ZG4plVqzF3znzoC/Kh169HV1enwKTkbXbe/InLFpS/6cPWin+Dn08AxsU+LTrMQ3lkSUlNTYMiKwfLlq006/qhQ1Px3X/+4UBZ+eyzQ4+/iYjIw40fNxFKpQozZsz+0veefvpZzJo1FzqdFht0WvT29ghISN5o0aKlUGTlID0946HXREfH4BtrX8LcOQugL8jHnj07nZiQvFV5kwGnaz4SHcNs22+8geTwJxAdOER0lAfyqJISFhaGrKwcKLJyEBYWZvH9EydOxsSJk7F3325sLFiPS5dt226OiMgdJSRIoFSokJX1/COvi46OwTe/uW6grBw4uNdJCckbTZwwCQpFDqZPn2X2PenpGXj1R2/0lxV9Pk6fKXZgQvJmHT3N2Fz+r1bfH+Yfi7jgYYgPHoaowCQE+YUj2C8SwX4RCPANue/alu4aVLdfQ3X7NVS2nkddh3WfaHf1NAr6oAAAIABJREFUtuGj69/D1zM2WJ3bkTympCxbthKKrBykpqbZPNaC+Ysxf94iFBSsR8HG9TCZjHZISETk+p57TgmlUgWpJNHsezIzx+D113+KWfv7y0pJySUHJiRv8/m6k2dWrbZ6jOnTZ2H69FnYtHkj16uQQ5ysykdTl2WvFxNDMzEmZjlGRS9CTFCy1c+uab+OssbDuFS/GzebLSvid1rOoajqQ0xJWGP18x3F7UvK49adWMvHxwcKRQ7mzVuIjRs3oGDjenR3d9v1GURErmLatJlQKlU27ZA0f94izJ41Fxt0Wuh0WjQ2NtgxIXmbh607sQXXq5CjWDLNK9gvEkuSX8W4WPOWJTxOXHAa4oLTMFXyNTR0VuLj69/HrZZTZt9/tmYzS4o9WbruxFrx8Qn41rdexrx761X27Nnh0OcRETlTauowZCtVWLp0hV3G8/cPwBpV7kBZ2bZts13GJe9izroTa3G9CtnbzeZi1HZUmHVtgG8w1qS/g0GhYxySJSpwENQZH6Lg2ndwuX63WfdUtp5HTft1xAXbPhvJntyupNi67sRaI0eOwqs/ev3e4vr1OHmyyGnPJiKyt6CgYGQrVVAqVQgLC7f7+MnJKfj+9340UFaKi/k7kx5v4sRJUGRZtu7EWvetVynIx+nT7rteJTPTMS94yTxXLDggcc6gVxxWUL4oa9h/4cOrL5q909i52k8wN+nbDk5lGbcqKXPnLEBu7lq7rDuxllw+A3L5DGzbvgW/+c3PhOUgIrLWooVLB848cbSpU6dh6tRp2Lx5IzbotKisvO3wZ5L7sce6E2u5+3qVyMhIyKZOEx3DqzV3mcy6zt83GHLpCw5O8zeKYb/H78/PR3tP02OvvdKwjyXFWnPnLMDrr/9UdIwBy5etRFhYGN588zXRUYiIzDJ2zHgolSrMmjXX6c9etWr1fVsWA31Oz0Cux17rTqrby3Cxrn/allyiRqCf5TMt3HW9ylQWFOGau6rMum5w6DgHJ7lfoF8YJsVn46jx7cdea2q7gu7eDvj7BjkhmXncoqS4WkH53Nw5C4DXwaJCRC4tLi4eSqUKSoVKaI7Y2Dj8wz+8glmz+8vKoUPmT5Egz5OamoZXf/SGTetOunrbUGjUoND0Ljp6mgEAl+p2QSbNxcQ4yz+V+eJ6lZ/9/A2Ul1+3OpszpKamYY1KLTqG12vuqjbruiC/CAcn+bInJSqzSgoAVLWXOmUqmrl8RQcwx9df/JboCA81d84CLFr0lOgYREQP9MwzWfifP/yf8ILyRWNGj8Obb/wcr732JoYPHyE6DgkQHh6B1//9ZzYVlLM1m/HOZSUOVv5hoKAA/S+0tlb8GNrSb6C8qdCqsdPTM/D6v//MqWtfLZWamobX//1nQqfAU7+ePvM+devt63Jwki+LDEhEcrh5uzbebXWt7eNdvqRkZo5B8pChomM8Ev/IEpEr+t53/xX/9O3vIzExSXSUB1q4YAne/ssHSEiQiI5CTjZxwiSrX1xXNB+HtvQb2FLxI1S3lz30umuNn+GDq1/H1oofm/1O9xelpqZh9GjnTs8x15NPylhQXIi50wtrOsodG+QhMqIWmHWduTuUOYvLl5TJk6eKjvBYY1z0lxgRebchLv4Gz+cGJw0RHYGcbPiIdIvvqe+8ha0V/4b3r6hxrfEzs+87XbMRb11cZvaUly8aPXqsxfc40pAhyfjud/8Vv/7Vf7OguJDwAPPeaKnruIlztZ84OM2XjY1dYdZak5FR85yQxnwuvyZl8qQpoiM81tix40VHICIi8kh96MWhyj/hcOWfrB6jo6cZ+27/J87VbMH8wf+MdBd7MfY4/v7+A+vKoqKiRcehvxMblGL2tZvLf4gbzSewaMgPEegb6sBUfxMekIBvZm5GU+fdh14T7B8Jacgop+Qxl8uXFCIiIvJOp6r12H/nd2jtrrfLeFXtpdhQtg6johdhweDvIyYo2S7jOtL8eYugVKqQkZEpOgo9xJCwCThuwfWnqvU4Va3H8MiZmBifhcFh4xEZkOiwfAAQGzQUsUHu8en651hSiIiIyOW0dTdg243XHTL25fo9CA+Ix9LkHztkfHvIzByDbOUazJkzX3QUeoxhkTOsuq+s8QjKGo8AAAJ8Q5AQPBxJYeOQGiFDbFAqIgMHIVjAjmCugiWFiIiIXI6pvcSh41e1PXzRvUgxMbEDU7t8fV1+6TABCPaLxNjYFThfu9XqMbp623Cn9TzutJ7Hiar8ga+H+scgMXQ0EkMyEREgQWhADML84xEblILIQMd++iIaSwoRERGRC1i1ajWUChWSkgaLjkIWmj1onU0l5WFau+twrfGzB24WEegXBklwOsIDJAgPiENUYBIkIRlICh2LEH/3X7vEkkJEREQkkGzqNCiVKkxyg82C6MFig1KwbOgb2H7jDac9s7OnBbdaTj/we9KQDIyKXoQRUbMxKNS1dqkzF0sKERERkQBDh6ZCqVRh+bKVoqOQHUyKV6Kq7SqKqj4UHQXGthIY20pwsPJ/4O8bjNSIqZgQ+ywyY5aIjmY2lhQiIiIiJwoMDIRSuQZKhQoREd67MNoTLUl+Dd19HThVXSA6yoDu3naUNhxCacMhhNyMxhNxWXhSonL4jmK2YkkhIiIicpKFC5dAqVAhPT1DdBRykOVD/wOSkAzsuvlT0VG+pK27HkeNb+Oo8W1MildiweDvIchFdxBjSSEiIiJysLFjxkOpVGHWrLmio5ATTElYg4zoBSg0votT1Xp09baLjvQlxdU6lDYcQvaItyANcb3SzJJCRERE5CBxcfEDWwqTd4kMSMTiIT/C3EHfxqmaApyqLkB1u2ttfd3YdRfvX8nFCxlaxAUPEx3nPiwpRERERA7w7LMKKBUqJCYOEh2FBAr0C4NMkguZJBd3Ws/jeuNR3Gg+gZstp9DZ0yI6Htp7GpFf+i2szdyIYL9I0XEGsKQQERER2dG0aTOhVKgwceIk0VHIxSSFjkVS6FjMwDcBAKa2K6jtqEBTlwn1HbdQ2Xoed1svobO31am56jtv45OK16AY9genPvdRWFKIiIiI7CAtdRiUShWWLl0hOgq5CUnISEhCRn7p623d9WjprkFLdy1au2r7/9ldC1PbFRjbLqOu46bds5TU78X1pmNIi5hm97GtwZJCREREZIPg4BAolSpkK1UIDQ0THYc8QIh/NEL8oxGP4Q+9pq7jJpq6jLjdchY3mk+iur3U5vJy3PQ+SwoRERHRw0QESB06fmhAzOOvCQl97DWLFz8FpWINhg8fYY9YRGaLCUpGTFAyhoY/iWnSrwMAunrbUVL/Kc7XbUVpwyGLx7zacADdve3w9w22d1yLsaQQERGRy4kNSsH4uFU4W7PZ7mNHBEgwPnbVY69LTh760O+NHz8RSoUKM2bMtmc0IpsE+AZjbOwKjI1dgfrOWzhw5/c4X7vVojFutZxBaoTMQQnNx5JCRERELmllys8hl7yAA3f+G1ca9ts8nq+PH2Yl/iNmDXrJrOunTZuJ3Ny1yMt7e+BrkgQplEoVVq/OtjkPub+LdTsfua1wSvgUpERMdWKiv4kOHIJnUn+FzOgl0F97xez7qtvLWFKIiIiIHkUSMhLK4X9EeVMhDlb+D242F1s1zoS4ZzE/6bsIC4iz6D517lrMnDEbp88UI2VoKkaPHoewMK47IeDAnd/jyN0/P/a6fx532OL/7uwpI3oBliS/hl03f2rW9fWdtx2cyDwsKUREROTyUiPkSI2Q40Lddhyp/DOq2kvNui89ag5mJv4DBodNsPrZI0aMxIgRX96BibxbbUeFWdfdbj2LkVHzHJzm0cbGrDC7pLR21To4jXl8RQcgIiIi73LmtHWfhgDAmJhl+NboLVg85EeICJA89LrBYRPwbNpvkD38LZsKCtHD+PsGmXWdsfWSg5M8Xoh/FML8Y826trWn3sFpzMOSQkTkodranHsYmLWamhtFRyAnO32mGAcO7rVpjKmSr2Jt5kbMSPzmfS8WY4NSsCT5NbyQkY8xMctsjUr0UKH+j98hDgButZx2cBLz+PkEmnWdv4955cvRON2LiMhDfbJ1E+LjE5CeniE6ykNt0H2IsjLzpu2QZ3nzzdfQ+v0WLFu20uoxwvzjMC/pOxgTsxyX63cDAKZIvoIQvyh7xSR6qKjAJLOuK2s8guauaoQHxDs40aM1dt0167pQ/2gHJzEPSwoRkYc6duwITp4sQrZSBaVShfDwCNGRBhgMR7FBp8WpUydERyGBfv2bn+HAwb1QZOVgyhS51eNIQtIhCUm3YzKix7NkGuGJKi3mJn3bgWke7XpTodnXxgc//ABJZ2JJISLyYJ2dHXj/g3dx6PABZCtVeOqpp4XmuXGjHBt0WmzfvkVoDnIdRUUGFBUZsGzZ01Bk5SA1dZjoSERmSQodi2C/CLT3ND322iN3/4zRMUshCRGzAUNx9Qazr5WGjnJgEvNxTQoRkReoqLiOX/36p/jRq9/D6dMnnf78rq5OfPChBi+/8k0WFHqg7ds/wbqXvwFN3l/Q0tIsOg6RWYZHmn+YZ8G1b5s95cqeLtXtwqW6XWZd6+8bhJTwKQ5OZB6WFCIiL1JY+Bn++bvr8Ps//BZ3jZVOeebefbvx8ivfxDvv/BlNTVwkTw/X2tqCvLx3sO7lb2DbNpZZcn0T4p4x+9rajhv46+Vs3G296MBE9yup34stFT8y+/oRFpQuR+N0LyIiL/Txx3ocPnwASqUKiqwchzzj4sXz0Om1OHhwn0PGJ89VUXEdv/nt39arTJ1q/XoVIkcaFjkDsUEpZp+Z0txVhbcvZ2FC3LOYm/RPj9xG2xZ3Wy+iuFqH4mqdRfc9maBySB5rsKQQEXmp6uoq/OlP/43Dh/rLysyZc+wybl1dLXQ6LTbotOjr67XLmOSdTpww4MQJA556qn+9Sloa16uQ61k29A18cPUFi+45U/MxztR8jKSwcRga/iRSw6ciNjgVsUEpVmXo7m1HeXMRrjUeQWnDIbNL0xelRExFaoTMquc7AksKEZGXO3f+DM6dP4PFi56CUqnC8OHW75K0ZctH2KDT4s6dW3ZMSN5ux45PcPDAXmQpcqDIykF4eLjoSEQDUiNkmJKwBkVVH1p8752Wc7jTcg6FxncHvhYZmIiowCT4wu+R9/b0daO1uwat3fVo77FtKm2AbzBWDP2JTWPYG0sKEREBAHbv2TGwC5hSqUJoaJjZ9xYVFWKDTouTJ487MCF5s9a2Vrz33jsDZWXF8lWiIxENWJL8GipbL9jl4MbGzrto7HTuAvtVqb9ATFCyU5/5OFw4T0REA9rb25D33jt4+ZVvYueubY+9/tatG/jtf/4C//LD77CgkFNU3CjHb3/7c/zgB9+G4fgx0XGIBuSM+F9IQlz38NyHmTPoFYyKXiw6xpfwkxQiIvqS69fL8Mtf/mRgcf2E8U/c9/2enm5s0Gmh02nR0FAvKCV5sxMnj+PEyeN4aukKZClyMCzNNQ6gI+8V5BeBr6ZrkF/2TdxpOSc6jlmmSb+OWYP+UXSMB2JJISKihzp69DCOHj2M1auzoVSqIEmQYv+BT6HTaXH5svO20SR6mB07tw7sAqZQ5CA8PEJ0JPJiIf5R+Fr6e9h648c4X7tVdJyHig4cguUpbyItYproKA/FkkJERI+1ceMGbNxo/onFRM7U1taG997/60BZWbHC/LMriOzN3zcIz6T+CuNjV2HHzf9AXcdN0ZHuMzHuOSxOfhWBvqGiozwSSwoRERF5hBs3KvDb//zFQFmRyaaLjkRebFjkDKwbswtXGvbBYMxDRXOR4DzTMWfQKxgcNkFoDnOxpBAREZFHOXmyCCdPFmHp0uVQZOVg2LARoiORFxsZNR8jo+ajruMmTtdsxOX6Pahpv+6UZycEj8ComMUYG7McccFpTnmmvbCkEBERkUfauXMbDhzYB4XieSiychARESk6EnmxmKBkzEv6DuYlfQdNXSaUNxlwt/UiqtvLUNNejvpO28+XigochMTQ0RgcNgGjohdZfTikK2BJISIiIo/V3t6G999/t7+sZD2Pp59+VnQkIkQESDAu9mmMi336vq+3dtehvacR7d2N6OhtQVt3PTp6mtDR04zO3taB63x9/BHmH4uwgDiE+cchLCAO0YFDnP2v4VAsKUREROTxbt6swH/+7pc4cLC/rMjlM0RH8jphAXFo6ap55DX1nbedlMY1hfrHINQ/BggSncR85vzMwgLiLB6XJYWIiIi8RnFxEYqLi7BkSf96leHDuV7FWaQhGbjWdfSR15yt2YT27kZMk34dyeGTnJSMrFVS/ynO1mx67HVSKw65dPkT58PDw0VHMEt0dIzoCERERGSmXbu24eVX1uKdv/4vGhsbRcfxCnFBw8y67krDPuRd+Qr23v4NWrtrHZyKrNHYeRdvXVwO/bVvm3W9uT/7L3L5kpKYmCQ6glmSk4eKjuBRMqIXiI5AThbiH4WU8KmiYxC5vcTEQaIjuI329nZ88MG7ePnltdjyycei43i8oeGTLbr+mPGv0JSswalqvYMSkTU2lf8Lfn9+vkU7lFn6swdcvKQsWLDEbT5JmT1rnugIHkUaMgoJwfwI3psMj5wlOoLZJk7gFARvlJKSKjqCWVJTLX/H0tvdvHUDv/vdL/G9772MY4WfiY7jsTJjllj8t722owLbbryO9WX/KPycEW9nMOXh/xWPxvnarRbdlxA8ApkxSyx+nkuXlIULFouOYLYFCxZj8OBk0TE8SlokD+HyJiMiZ4uOYLaJEydxiqeXSU1NQ0xMrOgYZnGnv52upvjUCbz66vfwi1/8B0rLroqO45GsebEKAKUNB/H+lVzsufVLNHdV2S1PbUeFWdeF+EXb7Znu5kbzSfz81ETsufVLq+639mfusiXlhz/8sVvtvBETE4s//P5/RcfwKIuH/KvV/2GTe5k9aB3Gxq4QHcMicp5k7VVGjx4nOoLZFixYgrlzOGXWFrt2b8fLL6/FO+/8GY2NDaLjeJTZg9YhMTTT6vsNpjxorqzByeoNNmfp6GnCzeaTZl0b4h9l8/PcTUt3DTQla/Dela+ip6/TqjESQzMxe9A6q+71S00b8oZVdzpIenoG/uFbL2PJ4mWio1gsJCQE6ty1qCi/jvIK55wkail17lrRESwyOmYpqtpLUd1eJjoKOcjsQeus/gUm0pAhQ3HmTDHq6+tFRyEHS01Nw0v/+B23+vRs7twFLv23yB309PTg7LnTOHLkIPz9/JGRYf0La7rfiMg5MJjyrL6/vacRpQ0HcbvlDCICEhAdZN35IGdqPsb5um1mXTsv6Z/g6+M9m+LuvvVzbLz2HTR23bVpnK9n6BDkZ93SDZcpKZGRkfjKV17AD77/GkaOHCU6jk3mzl2ApEGDUVl5B3V1rrUrhbuVFKC/qHT3duB261n0oVd0HLKT6KAhmJv0bUyTvig6ilWio2MwccJkFhUPl5qahtf//WdITU0THcViLCr20djYiMLCz3D27ClERkZxoxw7CPILx7jYlbhUv+u+AwotVddxA2drN6OtuwGSkHSLXwx/WPqiWZ8QRAYOctu/VZY6V7sFf7n0LG63nLVpnPCABHwj82NEBw22egyXKCkrVjyDH3z/VcyaORd+fn6i49jF8OHpWLx4GQIDA1FaWoLOTus+JrM3dywpAJAWOQ3Do2ahs6cFVe2cJ+zOfOCDadKvY8XQnyA1QiY6jk0+Lyp3bt/CnTvefQCZJ5rypAw/+P5rbllQPjd37gIMGZwMk8mImppq0XHc2t27ldi7bzcqK29jUGISYmMtP5yO/ibEPwpPxCtQ11Fh82yJO61ncbl+N/x8AhAXnAZ/38BHXt/cVQVt6TdRZ+Z6lBGRs5EZ49lrvSpbL+Cvl5U4W7vZ5rEyoxdjTfo7CA9IsGkcn7nzZH02p7HSlCdlUChVmPKke79QeZyKiuvQ6fOxffsW0VGwf1+h6Ag2u1S3C4UmDW63nBEdhSyUGbMEcokag8MmiI5id1u3boJOr8XNmzdERyEbDU1OgUKpworlq0RHsZuenh4UFKxHQUE+qllWbBYYGASF4nkosnIQFeW9C6rt5VztJzCY8nC39aLNY4UHJGBk1DyMjJ6PpNCxCPX/24YXprYrOF+3DSdMH1r0Cc7CwT+AXPqCzdlcUUtXNbbdeANXGvbZPJY0ZBTkUjXGxa60QzJBJSU5OQVKRQ5WrHjG2Y8WynD8GPQ6LU4Wi9tCzxNKCgD0oQ8GowaFpnfR3MU/uK4uKXQs5NIXMDrmKdFRHKqxsQE6nRY6vRZdXV2i45CFgoKCoFCooFTkICIiUnQchzCa7t4rK+tFR/EIgwcnQ6F4HqtWrhYdxe319HWi0JgHgynPrgc4xgalINAvFM1dVVa/XlCNeBvDPHDH0cN338LBO3+weZwQ/yjIJGrIJWr4+wbZIVk/p5aUwMBAKBUqKBQqREZ65h8Ac2zZ8hF0+nzcvn3T6c/2lJLyufrOWyg0anCiSis6Cj1AqH8s5NL+X1zetODwypXL0Om12Lt3t+goZKZFi5ZCqVBhxIiRoqM4xcWL51GwcT327/9UdBSPMHHiZCiynsf06e5z3pOrquu4AYMpDyeq8kVHAQCkRsjwlfR3Rcewq5L6T80+Kf5xJsUrIZPkIi7Y/tNinVZSFi5cAqVChfT0DGc8zuXV19dDr+9/x7W7u9tpz/W0kvK58qbjMJjexdWGg6Kj0D2T47Mhk76A2CDvXWR66PB+6HRaXLhwTnQUeojx4ydCqVBhxgz3OafHng4fPoCCgvU4e+606CgeYdGip6DIep6vdeygovk4DMY8XGnYLzTHypSfY3ycZ0z9rGw9j60VP4axrcTmsYZHzoJcmou0CMd9wuTwkjJu3AQoFSrMnDnHkY9xWyUll6DTa7Fv3x6nPM9TS8rnztR8jEKTBlVtXFwvSv8vLjXSIqaJjuIydHotdDotFy67EKk0EUqFCs89pxQdxSV8vKkABQX53ADCDgIDA5GVlQNF1vNutW21q7LnehVLpYRPxVdHapz+XHtr7qrGgTv/hdM1H9k8VkLwCMikuZgY5/gpjg4rKQkJEiiVKmStft4Rw3ucQ4f2Q6d3/Duunl5SAKCjpwUG07soNGps2tqQLBMfPAxyiRoT47NER3FJRmMldDotPvpYLzqK1+ufdpyD+Hjbdp7xNPX1dSjY2L9epaOjQ3Qctzc4aQiyFDl4ZhXXq9jKUetVHueVsXsRFTjIac9zhKKqD7Dr5s9sHifQNwxyaS5kErXV555YyiElJWv181AqVUhIkNh7aI/n6HdcvaGkfM7UdgWFJg3O1mwSHcWj+fsGQS55AXKpGsF+3rvWzFxnzpyCTq/F0aOHRUfxOnNmz4dCkYMxY9zn9HgRysquoqBgPXbuMu+QO3q03Ny1brv9v6tx5nqV3JEfIDl8ksOf4yiX6z/FJxWvoqOn2eaxJsQ9C5lEDUlIuh2Smc+uJWXmzDlQKlQYN87zthd1JqPx7r13XHV2H9ubSsrnrjTsh8GoQUWzuF3VPNW42Kchk6iRGMqTmC21a9d26PRaXLtWKjqKxxuVkQmFQoX58xeJjuJWDMePoaBgPU6cMIiO4vb+8n/vec2mDM7gyPUq4QHxWJP+VyQEj7D72M5wp/Uc9t3+HcqbbH+9lxohh1yixogoMWv27FJS0tMzoFSosHDhEntkonsc8Y6rN5aUzxVVfYhC47to6LwjOorbSw6fBLnkBWRELxAdxa21tbUNfHra2toiOo7HiY6OgVKpglKh8piDgkXYvv0TFGzMx/Xr10RHcVvr1n2H098d4HbLGVyo24GLdTvQ3FVl83gZ0QswN+mf3LKgNHdVwWDKwzHjX20eKzYoBTKpGpPjs+2QzHo2lZTIyMh7e8qrEBj46NM9yXq7d++ATq9FWZnti8G9uaQAQFOX6d75KhrRUdxSZGAi5BI1pkq+JjqKR7l+/Rp0ei127twqOorHWLVqNZSKHCQlDREdxSO0tbUOnK/S2NQoOo7b+clPfoWZXrqDnDO0ddfjYt0OXGk4gLJGy97YDfILR2b0EoyPW4Wh4U86KKFjHTe9j923fm7zOH4+gZBL1ZBJchHqL37TB6tLyooVz0CpyEFycoq9M9EDtLe3Q6fXQq/XornZ+vmF3l5SPner5RQKjRpcrnfOrmqeYKrkq5BLXkBkYKLoKB7rWOFn0Ou0OHX6pOgobksunwGlIgdPPOGeLzZc3c1bN1BQsB5btti+S5C3GD48Hf/1u7cQHu6cxcberq27AWWNh1HZehFNXUY0dZn6/9lpgr9vAEL8ohHsH4WYwCEYGT0fI6PmO20huL1drt+Dvbd/g7oO28/dGxu7AnKJGomho+2QzD4sLilTnpRBoVRhypMyR2WiR6iouA6dPh/bt2+x6n6WlPudr90Gg0mDytYLoqO4rIzoBZBJ1BgaPll0FK+xaVMBdHotKis5NdFcaWnDoFSosHTpCtFRvMLp08Uo2Lgen312SHQUlzZr1lx877v/iqioaNFRyIPcaTmLQpMGF+t22jzW0PDJkEnULjl92+ySkpycAqUiBytWPOPoTGQGw/Fj0Ou0OFls2WJwlpQv69/asH8KWFt3veg4LkMaMgpyqRrjYleKjuKVamtroNP1H/ja1+eUM3fdUmho6MC049DQUNFxvM7evbtRUJCPyyWXREdxKaMzx2D16mzMn79YdBTyIE1dJhhMeSg0vmvzWFGBSZBL1Jgi+YodkjnGY0tKYGDgvT3lVYiM5PairmbLlo+g0+fj9m3zPupjSXm4mvZyGEwaFFfbf1c1dxLsFwG59AXIJGoE+AaLjuP1Ll48D51ei4MH94mO4nKWLl0BpUKFtLRhoqN4tZ7enoH1KtXVti9edmeDBiVh9XPZWL1a7IJjcoyK5uMA+g95dLbjpvex59Yv0Ydem8bxgQ9kUjXNKEM9AAAKIklEQVTkklyEB7j2USGPLCkLFy6BUqFCenqGMzORherr66HX97/j2t3d/dDrBg9Oxgfv8yC5x7nW+BkKTRpca/xMdBSnmxi3GnKpGvHBw0VHob+zb/8e6HRalPAdazzxxJNQKnIgl88QHYW+wGQyDhwG6W2f/gUHh2D16mysfi4bMTHiFxyTfZXUfwqD6T3caD4BABgWOQPTpWuRGuH4pQ+X63fjqPEd3Gmx/bDv0TFLIZPkYnCYexwV8sCSMm7cBCgVKsycOUdEJrJSSckl6PRa7Nv34MXgzz2rxCuvfNfJqdxXcbUOBpMGNe3loqM4XFqEHDLpCxgROUt0FHqE7u7u/g00dFrUN3jf1MSkpCFQKnKwiid4u7RLly6goGA99u33jo1Jli9bidWrs5GWxjd3PM3tljMwmN7DxbodD/y+TKLG9MS1CPOPdcCzz8Jgynvosy0xOGwCZJJcjI5ZaodkznNfSUlIkECpVHEvbzd36NB+6PRaXLjwt9Y9d84CvP76TwWmck9t3fUoNGlQaNSgp69TdBy7iwkaCrlEjckJ/P+8O7l9+yZ0Oi22fPKx6ChO4efnB6VCBaVShehovkvtLg4fOYiCgnycPXtadBSHmD59FlY/l41Jk7iTnCfp6GlBScOnKKnfi5L6Tx97fWxQKmYkrsWEuOfs8vymLiMMxjy7HJUQHiCBXJILmVQNH/jYHs7JfG7dutFnOH4MyUOGYvTocQgLCxOdiezk9OlinD5TjKlT5Bg9eqzoOG6tsvUCDCYNztduEx3FLnx9/CCTqCGXqhHmHyc6Dlnp5Mnj0Om1OH7cc9eazZ+/CAqFCqMyMkVHIStt2lSAgo3rcfv2LdFR7IKL4j2Tsa0Ep6r1KKnfi6Yuo8X3j4peiOnStUgKG291BoPpPRy9+xe0dNdYPcbnpki+ArlEjajAJJvHEsWnz9smjhLZ4HL9HhQaNbjVckp0FKuNjnkKcokaSWHjREchO9m2bTN0ei1u3KgQHcVuxowZB4UiB3NmzxcdheygoaF+YHF9e0e76DhW4aJ4z/bp7V/bvGuWn08ApkvXYnriWgT4hph936W6XTCY8nCrxfZPHT3p2ACWFCIrFJo0MBg1aOoyiY5itsFh4yGTqN1uTiqZp6mpCTq9FjqdFp2dHaLjWC0+PgEKRQ6UCpXoKOQAZddKUVCwHjt3bhUdxWxcFO899t35HY7e/YvN4ySGZmK6dC1Gxzz1yOv617zk2eW8k8TQ0ZBL1Bgb6zlnRbGkEFmpofMOCo3voqjqQ9FRHinMPw5y6QuQS9Tw8fEVHYcc7GrpFeh0Wnz6qe1/9JztueeUUCpUkEoTRUchBzt+vBAFG/NRVGQQHeWRuCje+1xvKkSh8a8oazxi81jjYp/GdOk3kBAy4r6vN3behcGUB4Mpz+ZnhPrHQCbJhVyqhp9PoM3juRKWFCIbVTQXwWDU4ErDftFRvmRyQg7kEjVigpJFRyEnO3LkIHQ6Lc6dPyM6ymPNmDEbSoUK48dPFB2FnGzHjk9QULAe166XiY5yHy6Kp+LqDThmfBd1HTdsGifYLxLTE9diunQtAAyUk8bOuzZnnByfDZlUjdigFJvHckUsKUR2crZmEwpNGpjaroiOghFRsyGXqJEaIRcdhQQrKFgPnV6LqirXm5o4YsRIKBUqLFrEKYjerK29bWC9SmNjg9AsXBRPX9TSXYNjxr/a5YR3e/KWv/EsKUR21NnbikKjBgbTu+joaXH68xOCR0AmVWOinbZCJM9gMhmh02uxceMG0VEAABERkVAqcqBQqBAUFCQ6DrmIW7duomDjemzevNHpz+aieHqUm82nUGj6K0rq9wrNIQlJh0yixoS4Z4XmcBaWFCIHqGq7ikKTBmdqnHOORYBvCORSNeQSNYL8IpzyTHI/Z8+ehk6vxWefHRKWYcXyVVAoVRia7JnTE/5/e3f7U3UZxgH8ihQiRUqU08OqWSrG0hzDYLp6VcutVpvtsMnWoH9MeXVyB9x62DS1XDan4JxGJZBmz9KADFMwCj32orJaj+h5uJHP5+35/a77enHOzr6/3dfv5uYNDp6Mvr5X43AZvqeG4pmLD86/FkfHd8bED2fKum7N7Ut/PTagK6qrFs5RIUIKlNCZ7w/FwPjO+PzSsZKtsX75C9GeeSUytU0lW4Nby/4DeyOfz8XZs+X7o93U2hbZjs7Y1NpWtjWZ3945uD/6+nbFyMhQSeobiudG/Hh16tctYDviShkOed7Y8FK0Zbpi5R2r//viW4yQAmVwfCIX/WM9ceGn4h1m9uDS1mjPdMfaeudIMHczMzOR781Fb28upqamSrbOgw88FNmOznj+uRdLtga3rkKh8Mu8yu5dRZurMhRPMXxzeSj6x3bEqck9Jam/qm5ztGe64pFlT5ak/nwgpECZTM1+G/3jO2NgrCeuxY3/7Oqr7422xu54ovHlInbHQvXFF59FPp+LPXvfLGrdmpqayGY7oyO7PerqlhW1NgvPxMT49eH6wrXCDdUwFE8pDE3ujaNjO+Obyx8VpV7DHauirbErWlZ0FKXefCakQJmdmx6M/vGeGJ7cN+d7f3sXet3iTAk6YyEbGDgS+d5cnDhx/KZrPfPM1ujIdsbq1WuL0Bn8bnhkKPr6Xo2DBw/873sMxVNqV6/NXt8CNnP10g3VWFRVE+2N3dHW2B21i+qL3OH8JKRAhZya3BMDYz0x+j+evjTd9XS0N3bHA0tbytAZC9nrr++OfG8uRkfPzfneDRs2Rke2M7ZseaoEncHvDh8+FH27d8Xg4Ml/vMZQPOU2MXM2+sd2zPmlOb/MlnZHpnZdiTqbn4QUqKDCtSvRP94TH55/IyZmPvnTZ1W3LYr77lwfrSu3x2PLn69QhyxEk5PfRb43F/l8LgqF/95ak8ncEx3Zzti2zfYEyuvtt/fFwLEjcezY0bh48WJERGx8vCXWNq2Lrc8+Zyieivjk+/di6MJbMTy5L2YLP/ztNYurauPRu5+N5ru2xup6D3b+jpACibjw07kYnf4gLs2Ox/1LNkRjbVNUV91Z6bZYwIZHTkU+n4t33/3nswE6sp2RzW6PFStWlrEz+Kv33z8Rzc2PRXV1daVbges+vXgkpq98G9Oz5yMiYsnihliyaEU8vGxzhTtLn5ACwL/66usv4/THI3H6zEic/ngkHt/YEo+ua441a5pi+fKGSrcHwC1ISAEAAJJSVekGAAAA/khIAQAAkiKkAAAASRFSAACApAgpAABAUoQUAAAgKUIKAACQFCEFAABIipACAAAkRUgBAACSIqQAAABJEVIAAICkCCkAAEBShBQAACApQgoAAJAUIQUAAEiKkAIAACRFSAEAAJIipAAAAEkRUgAAgKQIKQAAQFKEFAAAIClCCgAAkBQhBQAASIqQAgAAJEVIAQAAkiKkAAAASRFSAACApAgpAABAUoQUAAAgKUIKAACQlJ8BifUpeYgDz+sAAAAASUVORK5CYII=;imageBorder=default;" vertex="1" parent="1">
          <mxGeometry x="563.5" y="210" width="92.99" height="30" as="geometry" />
        </mxCell>
        <mxCell id="c4bkTZfljf2fLF1p8XpX-19" value="" style="shape=image;verticalLabelPosition=bottom;labelBackgroundColor=default;verticalAlign=top;aspect=fixed;imageAspect=0;image=https://mariadb.com/wp-content/uploads/2019/11/mariadb-logo-vert_blue-transparent.png;imageBorder=default;imageBackground=default;" vertex="1" parent="1">
          <mxGeometry x="874.28" y="373" width="71.17" height="58" as="geometry" />
        </mxCell>
        <mxCell id="c4bkTZfljf2fLF1p8XpX-21" value="" style="shape=image;verticalLabelPosition=bottom;labelBackgroundColor=default;verticalAlign=top;aspect=fixed;imageAspect=0;image=https://upload.wikimedia.org/wikipedia/commons/thumb/4/4f/PhpMyAdmin_logo.svg/1200px-PhpMyAdmin_logo.svg.png;imageBorder=default;imageBackground=default;strokeWidth=1;" vertex="1" parent="1">
          <mxGeometry x="710" y="231.82000000000002" width="107.94" height="60.18" as="geometry" />
        </mxCell>
        <mxCell id="c4bkTZfljf2fLF1p8XpX-23" value="" style="shape=image;verticalLabelPosition=bottom;labelBackgroundColor=default;verticalAlign=top;aspect=fixed;imageAspect=0;image=https://activemq.apache.org/assets/img/activemq_logo_black_small.png;imageBorder=default;imageBackground=default;" vertex="1" parent="1">
          <mxGeometry x="690" y="406" width="112.85" height="40" as="geometry" />
        </mxCell>
        <mxCell id="c4bkTZfljf2fLF1p8XpX-43" style="edgeStyle=orthogonalEdgeStyle;rounded=0;orthogonalLoop=1;jettySize=auto;html=1;exitX=0.5;exitY=0.5;exitDx=0;exitDy=0;exitPerimeter=0;entryX=0;entryY=0.5;entryDx=0;entryDy=0;" edge="1" parent="1" source="c4bkTZfljf2fLF1p8XpX-42" target="c4bkTZfljf2fLF1p8XpX-5">
          <mxGeometry relative="1" as="geometry" />
        </mxCell>
        <mxCell id="c4bkTZfljf2fLF1p8XpX-42" value="" style="shape=umlActor;verticalLabelPosition=bottom;verticalAlign=top;html=1;outlineConnect=0;" vertex="1" parent="1">
          <mxGeometry x="150" y="340" width="30" height="60" as="geometry" />
        </mxCell>
        <mxCell id="c4bkTZfljf2fLF1p8XpX-46" value="" style="shape=image;verticalLabelPosition=bottom;labelBackgroundColor=default;verticalAlign=top;aspect=fixed;imageAspect=0;image=https://tcude.net/content/images/2022/01/MainImage-2.jpeg;imageBorder=default;imageBackground=default;" vertex="1" parent="1">
          <mxGeometry x="910" y="480" width="200" height="96" as="geometry" />
        </mxCell>
        <mxCell id="c4bkTZfljf2fLF1p8XpX-47" value="" style="group" vertex="1" connectable="0" parent="1">
          <mxGeometry x="550" y="325" width="120" height="75" as="geometry" />
        </mxCell>
        <mxCell id="c4bkTZfljf2fLF1p8XpX-6" value="Order Service" style="rounded=1;whiteSpace=wrap;html=1;" vertex="1" parent="c4bkTZfljf2fLF1p8XpX-47">
          <mxGeometry y="15" width="120" height="60" as="geometry" />
        </mxCell>
        <mxCell id="c4bkTZfljf2fLF1p8XpX-48" value="" style="shape=image;verticalLabelPosition=bottom;labelBackgroundColor=default;verticalAlign=top;aspect=fixed;imageAspect=0;image=data:image/png,iVBORw0KGgoAAAANSUhEUgAAAOsAAABWCAYAAAAuXmF+AAAABHNCSVQICAgIfAhkiAAAABl0RVh0U29mdHdhcmUAZ25vbWUtc2NyZWVuc2hvdO8Dvz4AAAAtdEVYdENyZWF0aW9uIFRpbWUATW9uIDEyIEF1ZyAyMDI0IDA4OjUyOjUwIFBNIElEVOBVvtEAAB4CSURBVHic7Z1/dFTlmcc/l0kmv/k1hIASIgaxiaXE0I1SwVIw6SpGEHY3UGEPYLu1W0DFtbpCcziRVqxdOTXW1e5CW4GK29MjFN2CMdaTWIV0iQhLUoFIIiCEMDE4yeTHzM3dP+68d+5MZiZz70zAbO/nnBxIZu6978y9z32f93m+z3MlRVEULCwsvvCMuNoDsLCwiA7LWC0shgmWsVpYDBMsY7WwGCZYxmphMUywjNXCYphgGauFxTDBMlYLi2GCZawWFsMEy1gtLIYJlrFaWAwTLGO1sBgmWMZqYTFMsIzVwmKYYBmrhcUwISHeO2xpaeGzzz4zvX1BQUEcR2NhEV8aGxvp7e2N+J5w17DT6eTMmTMRt83OzsbhcIR+UYkje/bsUYCYftatWxfPIVlYxI1NmzZFdQ2vXLlS8Xq9Ads2NzcrmZmZUW1fU1MT8viSosSvU8SECRNobW2lZJSNpBGSoW3tErzv8vKpB5qbm8nJyYnXsCwsYqaxsZH8/HwcwNyxCfSFsZp9n3kB+OCDDwJm2KVLl/Lqq6+SnyKRl2IbsL1dgosehVqXzIoVK3j55ZcH7DtubnBLSwutra0AHLgpFVmJ3lhtkoJXkZj3v1186pFJT0+P17AsLOLCT37yEwAenZzEY5PsA65vm6RQ39mvGeuYMWO01xobG3n11VcB2POlVG5IGRFy+6fP9lHrkgO21RM3Yz116hQAJaNshreVFYnPvP3UumSKiooYPXp0vIY1ZDQ2NnLixAnT2xcUFBj2HpxOJ++++67pY+bk5FgxARO0tLTwq1/9CoB/njDQUAX/dq4PgLKysoBz++KLLwLwLUdiSEMFaPMoPP6JuhZetWpVyP3HzVgPHjwIwLxRxndpkxSOdfUDcOutt2KzGTf4K8mRI0e4+eabY95PQ0MDeXl5Ub3X6XQybty4mI/51ltvMX/+/Jj389fEc889B8C/XmsnIwHkIBfWJimc7O7nN04PAI8//rj2mtPp1LZ/5Fo7oC5MpaDtX72kbltaWhr2hho3Yz127BgA01PNZYMaumUAioqK4jWkIeO1114DCLv+iIRdgg9dXk55oLq6Ompj3bt3r/b/JRHWTOHo8KrroZ07d1rGagCn08mzzz4LRJ5VK8+rxlZUVBRgbM8//zwAczJsFKars2rwHlxeWHtanVUfffTRsGOJi7G63W7NJ/+bDJuh9aq45va1q75+YWFhPIY0pPz2t78FYPvUFG7JMO4F3PdRD6ecHrKzs6Pepra2FoCHJ9p5dkqS4WPucXqp/aibqVOnGt72rxnhwj480c6kJGnArApwtleh8oLqAv/4xz/W/u50Otm0aRMAm7IHnjMFSJAU9rSrhl5YWMicOXPCjiUuxtrS0qIeLE1iTIKxmVWY9ZuX1Zn1ix4FlmWZxsZGAK61q5/VyM3JLSvUfa6enGnTpkV9zKNHjwJwc5rxY9okhWNu9fu9/fbbo97urx23283GjRsB+N6ERCDQhRXG9suLqqEWFhYyd+5cbftXXnkFUGfV20clDDB0CfU8bjmnzqrl5eURxxMXY62vrwfgtoxEEiTjmaCT3ep6tbCwkNTU1HgMacgQ7n5+iuS70xpLUV3w9HPKA7m5uVG7wB0dHdp3fKuJmRxgr+/unZ+fb2p7M8iy/IWPP0Ri9+7dgLrsEIEh/dmWUAND5WdUYy0vL9c+r9vtZu3atQCsv8ZOgqSEjADvcXpp6FbIy8vj7rvvjjieuCqYjnTJrD/di9eAvSZI8EmvaqyLFy/W/u52u3n//fepqamho6MjnsMMPH5CAlOmTGHGjBnMnDlzwM1i165d1NXVae89efIkAAWp6lcXHCyIhAhECB555BG8Xu+g4zt37pz2+4TE0NHESLi8cLhLgeQUKioqBn1/UVERzc3NXLx40dBxBOPHj+eBBx4YoMRxOp28+OKLpvd7ww03sHr1au0c1dbW0t7ebmpfAMXFxWEnB7fbrbm0j/oCQ3rErCoCQ0CAsYm4hgO4e2xiSPcZ4MmzPQBs2LBh8BtbPJQd69ati1m5BCjNzc2KoihKZWVlXPZn5qe8vFy5dOmSoiiKsnnz5rDve3lqsqJ8LUPxzhoZ9Y/ytQzl4Yl202MrHZNg6pgHp6de8e8xNzc3QMXj9XqVvLy8mPdbVlamKIqirF+/PuZ9ZWZmKl1dXSGv6Z07dyqAsmRs+O/886IMxeHb17Zt27Rtu7q6lNzc3IDrxKPbzuM7L9X5vvOSnBJ2HHpiVjC1tLRw3XXXMTURHpyURJdsbPs+RXUjioqK+OMf/8jSpUvZt28foLqa3xydSFaisZnECK0eheNuWVszA2RlZbF//36++93vUldXx9oJdq61+8fQpyisGm9not3Y+twmKey46OFTo6Fc3zFnptm4a2yC4Zn1wy6ZNz7zYJcG306cj2sSYd1E44Gsy7LCU75846VLl7TZVSiAZqZJ/L1j4Ew1GOf61CBObm4uhw4d0tJYFdn2qD5XMP95vpdTHqipqRkQ1JFlmRtvvJGmpiaq81OZN3pg0FScy3881TPgs+7du5dFixbhAE4XZZBqGzg+m6RwT2M3+z7zUllZyZo1awYdc8xusBBD/OMEO2smGj8J9Z39lJ/pw+VysWjRIqqqqpiaCDu/lGoq0moWlxfe6PCw7EQPra2tAXnUZ6ckh1yLh3NtwiErEivGJ8Y0TqOGClCYPoLC9OgM72S3ej7mjkzksUnGz+fbHTJPnesjKysrQNwi1tx/77Cb2u9LF/xrbiGGz0mCH4aIsg6GywvP+AQIkydPHvD666+/TlNTE4VpUkhDBfAqEhUtqqFWVlYGuPyPPPIIAD+6PpmMBPAqA/OqmtopOYVly5ZFNe6YjVUoamamqYYV7cWkoPr8VR3qmq2xsZHGxkbmZNh4Iy/Vl3weuhlVPw4JSLXB0nGJzM5I4JajnXzqW4qUjLKFDA6Y5Up8JrPHtEkKB12qh1HqUM+nN0ReMNL2b11Wz2dZWVnAGkys++eOMnadiP2+4ZPxlZSUcPz4cQDuGWM3NcaTPf04UYN8kyZNGvAesVb94aRkwH+N6Pexx6nmyoEAY6uurqapqQmAb41LDJlXBb/aafPGDeGrbIKIuZ71T3/6E0BYGVU4xDv/3BnoN/9mWsoVM1T9OEA95qQkiXe+nKb9bfbI4RvNNMP+z9TzMS1Z/dxGz8KbHeoVPGPGDO1vsizzxhtvAGq6y0yA7D2fsc6ePVsz/HmjzI3xuC+NNWfOnAFBndraWurq6ihMk3yBodDGttkXGCovLw8wtp/97GeAX+0U7HwFq50eeOCBqMcdk7E6nU6qqqrIT5GYkmz8onZ54Xft/mhoRbbdVDoEBn4pZpEViRtSRvCwz6W/LSPuJb+mMfoZjb7f5YW6zz1ckwg3JMcQdSZQ3HL27FmampqYk2FjUpJkaFw2SeGCR50JQa33rKqqAuAmk2q5d11+Yw3mmWeeAeChiUkkSErAWBXfeN7ukLXPuXr1au31I0eOaPEWoXYK9Q0KtdP69eujnlUhRjdYrB2+OTrRsKsoToKektHGhyNcFLGmdPlsX9iYERdJ7A/g9pE2tp6HaSkjfPv0n7ZQAYNocBtd5Oowc0zJ4DFP9qg54CVjEwwfzyYpmmQUAgUfIq7x1XRzM6FwzXNzcwF1yeTAXBoL4BetfsWQHr2xLcu0IwetNcX/n/aJGFauXBkg4tmyZQsAayeEVzu1efxqp29/+9uGxh2TsQrXpijD3B3u7cuBLvD1Ju7m4t3Pn+/T9JWgRpJ33JBKYfoIQwYr3ufyfdPZhzsDXp+TYaNmurESQIB2bz/j/9w5+BtDkJMEx2aEjipGQgGm1Lm0WSla5o6yYTOxThdLmrKysoD8ZU1NDQB3mKjIUver3tRXrVrFkSNHAFiSlRhSVD8YZ3v9GwTLPYUGuHJKUlgRQ31nv5Y5+MEPfqC9pi+DWzsxdBDRJim86DPUlStXRi2KEcRkrIcOHQL8wSWj1OvyPCWjbIaliqB+AU+e6dVUJIKGboWHTvdQMz3V8J0c0NIrubm55Ofn09DQQFNTEwvGxFZVlJmZGXWZ2uXLl6mrq+O2dOMXpk1SONurRG+oySnQ0w1Afoqx8ymG9Y7vIp4+fXrA6/v37wfUuIZRZEWi+rI6E375y1/WqrvMFIzYJIWjXf6CEb0L2tLSwo4dOwAo8wWGQqEvg9MbW7RlcOI6ffDBBw2P37SxOp1O9lW9BcD1yTbDdzivInGgw6/+mDcqwVTUNVjude+993L8+HGWL19Og0s2Hag65zPWhx56iDVr1lBSUkJTUxN/k27uQhazTnl5eVQ5NYDt27dTV1fH344xdzN81+WPzO7evRtZDp0Et9lsASV4oXSskZBQlx/v+OIPCxYs0F5zOp3U1dXhwHgQElSPpKFbHczs2bM1BdbXTMYSxHr1rrvuCvi7ENxvmZxEZuJAFzY4MPT9739fe62lpWVAGVww+jK4srIyU3XFpo314sWL0NPNtxyJWqcHI6fhdI9Mi67v1FwTLpJNUqi+7A9QvfTSS1T85BkyM9ROE1kp5gxVViSO+O7AY8aMwe12a0GN6Wnmot7/5VRvKPoo6WDs2bMHUNfNZjjqm81nz54NEFHOJtzLwjTJVPxBpEMg0L3U4hoO4/llm6TwZ59xiVlM5GtvSDb3nRz23TTFdwKBxeWrs8LPqv/uy/UWFxcHBKe2b98OqN6hKIMLRl8Gpzd0I5g21vfffx+AWSPVL82IWdgkhePuwOBSfoqx0jrBe5+r+3EA3tZWHEC/z52bPyrR1NpLAWp9F0lhYSGHDx8G1PXqWBOuussL9b7o4cyZM6Paxu12a8GOmenGZjoI9Fz0F2Y4RL580Vhzog2RDikuLg5wL8V+zXoHh7v8+21oaADU85Bqk3B5hXIwOi7Lirbe1JcKCmN7eKI97Kx6tldh63n1hvvYY49przmdTm22r5gcWqBh05XBBRu6EUwb64cffghg2C0U6INLJaNspoIFsiLxo8lJ/CjMlyTeYwQRRBDk5ORQXV0NQEGa8cCLmHVAXf9GW1XU1tYGqBemmeXBhb5+7QYxWN2sLMtavtxo/EGcMpGfnTVrVsDrwlhvSo2tWmjGjBn09anG0uCSKTrqoqc/0pYD6fNVmOTl5WliCL2xiTK4ULzgCwwVFRWFLIMrTJO4JUwtt1dXBqc3dKOYNtbnfvEfgLkILqAFDcBcKxiB2TRKJMQsUVRURGpqKr///e8BfxI+WNEyGO/51o4rVqyIehtxkZsNaIlASmlp6aC5vI6ODs3NN9o8QLxTrOX09bJut5tX96rfXTzyttOnTycvL4/GxkacXebTYJWVldqSQBhbpMCQy4umd37iiSdClsGFUjsJlZ4ogyssLIypS4cpK2lpaYGebkpG2UK6DYNxtlfRggZgbr06lPzWqRrXPffcAzAgCR/tJSc+4fs+V91IUEGodMwGtIT7eMsttwy6jXAvzTQPgMB0iN69FNdJ6ZiEkBrZSATnbbOzs7HZbBw7doxjx47hcrkMjxNUbbG4ebndbtY+qqZfQvVHEsYmZtXMzMyAMjhR75qfImllcKHyshs+8audYsGUsYpgxEwTLrBNUjjRHei/mJ2dh4I2j6K1k1y8eLH2WQGmGIx6a1FSX2eIaI1VluWYA1q7Lw2c6cIhanS/mq5G5I1qbcUsnpmZGSASEHGN2zLMiSGO+AJk+nWwzWaLW4fG3bt3Q083S8YmhOyPJM6fEP1v2bIlYFb96U9/CsDj1yaF/N6E2qmhWxlg6GYwZaz+JLc591WvBy4dk2B4dhZ3PzPBo0joo8uik8OuXbsAVdVjVqX1qUd140KJxkNx9uxZGhsbmWlypnN50TyXaDpDiKjzNwxqbcUpE+mQ4OoREdcw6zmJIo+vf/3ryLLMli1b+Oijj0x1n5BlmSVLlrBw4ULt9yeeeAJQpYHBaC5suwcn6o1o6dKl/rFVVWlKqkURNMRC7aQ3dLOYsrZ33nkHgOwkc4aiN9bbTJTBCRndZdlYNHAwkkbAL31StIceeghQW3cCFI823hkC/FK5uXPnRn2yhDxvpsmZTh/QikZ7qkWdTYpbRDpE35nS7XZrCjcznpPLqz6hAdS8bUVFRVRdLiKxY8cOrVP+66+/TmtrKzNDlMHpz7GoV33wwQcDgoNiLJumJIUtgzvk8tdJi5tELBg2VqfTSX19PVMTzYkhgsX7ZvOrT53r1Rb9Q8H8+fORZVlTaRWkGU9RgX/WMdKoTKh0zM50Yka67777Bt1GNH8Dc25+m8efDtFrbdva2jTxvtF0l7jhiDLF7OxszcN5eWqy1qjOCC9c6ON37V7q6+spKCjwp1uyk0N+LpukaEsJCKyOqa6u1vK9ZRHK4J4RZXCbNxsS7IfDsLGKYMS8scZzmPq7vsDselWse/Vh+HjgdDpZv349eXl5tLS0aK6OmXHKisTr7dHnOgUi+mx2phNiiGhuEOKpAmbqdm2Swse+85mVlRUg3hdr/a+mG0t3iXvFiR7/bN3Z2anViJop3pcViR+0qLn3WbNmacaWnyLxzTGh+yN5FYkXfNUxwWVwTz/9NKBWiQUv4YT7fLK7X5uUjJTBRcKwsYr16jdMrkNEGkNgJpqsn53vvPNObrrpJlNjCcbhcHD33Xdr7qp4dOV1JteO5/v8s0NFRQWjR48mMzMz7Pvz8vKYP3++Fgk2WlUiAiIHfGmUgwcP0tmpFg+Een6Q3W7XUhelY83FH4Qe+Ctf+QrvvfcefX192O12bR1sVrz/x8t+WeAnn3wCqHEDMJ47P9/Xr6WAcnJyWLlyJaB2mQilvrNJCv/d7tWEMfoyuNraWi34t2r8wKbf4reffuqXwMZjVgUTxircwmkG61eD0xigJvyNEjw7i0qJeFFaWqrNbILrkszNOnqEdnQwdu7cSVZWFq2traZyyD2KX7wvet5Gg1HxvuBtX0CuqqpKu4j1mGlK4FUk3v3cX2wuJgizSyYRrS4rK+PEiROaVvnvHAPL4ARbfC7sunXrAiLcP//5z4HwTb+F2kmU4ekNPVYMGavT6dSCEUaT3MF3fYDxJhuhdXgVvuVIJD2OdeGdXjWxv2/fPpxOJw6Hg6QkVRllor+Zr+sEHJyeyt52Ly09Cr2KgktWuOTtRyIwkNHdr0ZwDxw4QHp6uvZEPiMoqJ7KiZvT2H3Jw1/c6jH7FDjXJ4e8KA93KTgwniIC1ag+dssUpqnb6bdWgHEJI7jeRFOCC31+8f7UqVM1t9NszvmYT9o6ffp0rZPDpikD0y3ChT3kkrVZdf369dr+9GVw0aidgg09Vgxd7kKUvWSsuSS3vuLfLLKiRu/mjY6vkOK/2738xukhKyuLlJQUAC3619QjmypilxVVghbc+M0bZBQJuk55ubm59PX10dTURLu331BwRvId8/pkGz/MDtwu+JgSatfDmUe7yDHh5osbTeNXRxrabrB9JkgK/9Ppz9tmZmZqM7bRuEFwEQWgCfZDBYbE/5+J4WlwerVTvNaqAkNnSEjg5prsfSNUNbm5uWRmZtLca7BvqQ9ZkeL6A/6775133qkZ6aRJkygqKqKhW+F0j7Gxiu8m1PEk3+uS7n2N3X6VU0lJCQAf9/RjC2otYvY7Cj6mTVK0FNrnJlwHSfdvpB8ziEd9LFu2TAuAxVpEkZmZqS1vRBlcuP5IIh6ifxpcqDK4UNuLWbW0tNRwcflgGPr0ovrErHhfVMgsXLiQ7OxsDncpBMWbrhqie56+KsZms2l63gMd3gHr0HghK5ImWC8oKNDE8Nsvqn8bKm2XKP4/5VFLFofq80WL+JxVHf5IsOhkOHukzfD49PGNtrY2LXC3Oisx4Hh6RGAo+NGLwlDDqZ0gUO0U6WlwZonaWN1uN3/4wx8A8+Vsf/C5I4sWLdIqF/a0e7STcLUuFa8iaWuU4BSLUOWsPd3Lye7+IRmrKLAWbl9eXh4rVqzgF60e3u6Qh+SYwcX/4iK92ufC5Q0sTzxw4AAARSYniODumaIMLnhZAGrPZBEY0ndyCH7sIwR+P6KRmlA7xVIGF4mojbWlpYXW1lZKRtlMNdM62d2v9VmdPHky69atA1SFiLggEyQF21X4OdoVKBjX43A4/EXgH3QNyVhFrvLWW2/VXPCtW7cCML/BzR5fYUE8j3mhr18r/s/KyuIXrR7Wn+7F5SVun88oetec5BTGjx+vtYQRzdaMHr8mqM/X+mtUYwu+gm2Swi8v+p+xqq+OEWtVvdopeK3rVSQe9qmdYimDi0TUASah2JhpMMktONPr72kkFu3btm3j/vvvZ36DmyVjE5g7ysa4RIlkE49DMItd8quMwsnzFi5cSGVlJWvXrtXGWjw6gYK0ESTGYaxv+hRH+qcAOBwOPvjgA26++Wbu/aibORl9/MO4BPJTbIxOiP2Ywihyc3Oprq5m/vz5bG1qYuv5Pv71WjtfSRthOD2nZ3yixES78XGKSpvS4jvo7Oykra0NB3Cur5+LHmP78yj+x2sC/FNWYthWt20eJaAMTuB2u9m4+UdAaLWTvgzOiT9XPhQYNtbZBnOj4v76um9NqHcPVq9ejcPh4Dvf+Q6/a2sLkCFeDYQeOBhZllmzZg0zZszgySef5HdVVUMy1nvvvTfg94KCAi5dukRFRQXPPfec5h7Gk1WrVpGTk8OpU6d4/vnneeGFF3hKJ0E0y2s3prDIYbwH9Jsd/tI+IeRwArcec8c8pn+5Jnx/JNF1MPjRi6IypzAttNpJzKqiDO6pp56KeZzhGPTBVNu3b2f37t1U1b4LPd2cmZlu6IFM4s5z+zE3tS6ZnTt3DtCsut1uDh8+TE1NjdYN4Eozbdo0li5dGpXYvrGxkfr6epqbm+M23jvuuCPiOsfpdHLkyBEOHjwY8zHtdjvt7e2cPHkyIBCSkZGB0+nk4MGDHDp0iFOnTg16rKZzn2pdEfV8HuaBTJFwywpf+sDFp7oHRm3fvp3777/f0H5CUTLKxoGbQreQdcuK1rI1+PqUfJ7TK9OSWTouMWwZ3PwGN7m5uaargqIhorGKJ38BTE2E0nF2np2SFFPPXFH1YHH1cDqdzJkzJ0DEH5bklMivhzDUN76Uwl1jEwznpkXeFwKfyhauK2Mkgjs2HpyeGrLtik1SeOmChwc+VmdGr9erGduuXbtYvnw5DuDCrJEhP4tNNxFt27YtroqlYCK6wSLHVZFt157WJSuSoTIxfQAFBvaUtbjy7N+/PzpDhZDGGEx+isQk+whKxyawaKx/XWjEUG2SEiDe18cOzM5UQve8ZGyCJkwJDnzJikTFGf/T4MSxZFnm17/+NQBbp4Z+iiAQoHbS17sOBVGtWUVjB3FXMho2EGLv0tLSYf3Y+v8vCMnoazemaFFWoyT5VkLJkkRwC18z3SQB9jlDp8/McvnyZQBO98r83V+6Q8pGO7yKVmwRXDx/9uxZQG3zI1r96LFL8D9d6t8rKyujboZnlojGKio2YuVPvjuPUOZYXD1kWdaaB9w2Uu2hZWo/OoOM4RE+gF83HqrpWiwsWLCAjRs3Ut+lUN8VOSC4bdu2AbP5fffdx8aNG7U2P+HIy8uL+hmrsRDRWEWJmBmEq+zyon3YeMuvLIxz4sQJWltbKUyTfOWJV7/3lU1S+I2u0Lu4uDgu+y0oKKC5uTmgj1YocnJyQsZRNmzYwIIFC9TGbxEoLi4e8lkVonSDR5ls96k/CZmZmQN6ylpceUQc4pujVcmd0TY18UDfQwvUIgoR4Nm2bVtcL/ycnJyYKl8KCgq+MAHRqIxVNCwwqkqp7+zXTkJ5efkVuftYREbUhop8ebjAyZXgZHc/uy95tGcVlZWVDWk0dbgTlbF+3KPKBaPNyXsUhTc7vNpJKC4u5nvf+57pQVrED9Hp/0yf2g1hqPm8X0E8htfdDxc9/fzFrXDA6Qkol9y8eTMbNmwY8vEMZ6Iy1q3n+7TnfBiluLiYV155xYoCf0GYO3cuO3bs0Dyeq0lhYSGLFy9m+fLlcS3S/v9KRFGE2+1m6dKlWrc9I8ybN49ly5bFpQWjRXypra3V+hpdSSZMmIDD4WDMmDGkp6fHrTfRXwuDyg1BNVqjWOtTC4v4EpWxWlhYXH3MPZHWwsLiimMZq4XFMMEyVguLYYJlrBYWwwTLWC0shgmWsVpYDBMsY7WwGCZYxmphMUywjNXCYphgGauFxTDBMlYLi2GCZawWFsMEy1gtLIYJlrFaWAwTLGO1sBgmWMZqYTFM+D9x5/sbpysA9wAAAABJRU5ErkJggg==;imageBorder=default;imageBackground=default;" vertex="1" parent="1">
          <mxGeometry x="563.5" y="431" width="98.37" height="36" as="geometry" />
        </mxCell>
        <mxCell id="c4bkTZfljf2fLF1p8XpX-50" value="" style="shape=image;verticalLabelPosition=bottom;labelBackgroundColor=default;verticalAlign=top;aspect=fixed;imageAspect=0;image=data:image/png,iVBORw0KGgoAAAANSUhEUgAAAOsAAABWCAYAAAAuXmF+AAAABHNCSVQICAgIfAhkiAAAABl0RVh0U29mdHdhcmUAZ25vbWUtc2NyZWVuc2hvdO8Dvz4AAAAtdEVYdENyZWF0aW9uIFRpbWUATW9uIDEyIEF1ZyAyMDI0IDA4OjUyOjUwIFBNIElEVOBVvtEAAB4CSURBVHic7Z1/dFTlmcc/l0kmv/k1hIASIgaxiaXE0I1SwVIw6SpGEHY3UGEPYLu1W0DFtbpCcziRVqxdOTXW1e5CW4GK29MjFN2CMdaTWIV0iQhLUoFIIiCEMDE4yeTHzM3dP+68d+5MZiZz70zAbO/nnBxIZu6978y9z32f93m+z3MlRVEULCwsvvCMuNoDsLCwiA7LWC0shgmWsVpYDBMsY7WwGCZYxmphMUywjNXCYphgGauFxTDBMlYLi2GCZawWFsMEy1gtLIYJlrFaWAwTLGO1sBgmWMZqYTFMsIzVwmKYYBmrhcUwISHeO2xpaeGzzz4zvX1BQUEcR2NhEV8aGxvp7e2N+J5w17DT6eTMmTMRt83OzsbhcIR+UYkje/bsUYCYftatWxfPIVlYxI1NmzZFdQ2vXLlS8Xq9Ads2NzcrmZmZUW1fU1MT8viSosSvU8SECRNobW2lZJSNpBGSoW3tErzv8vKpB5qbm8nJyYnXsCwsYqaxsZH8/HwcwNyxCfSFsZp9n3kB+OCDDwJm2KVLl/Lqq6+SnyKRl2IbsL1dgosehVqXzIoVK3j55ZcH7DtubnBLSwutra0AHLgpFVmJ3lhtkoJXkZj3v1186pFJT0+P17AsLOLCT37yEwAenZzEY5PsA65vm6RQ39mvGeuYMWO01xobG3n11VcB2POlVG5IGRFy+6fP9lHrkgO21RM3Yz116hQAJaNshreVFYnPvP3UumSKiooYPXp0vIY1ZDQ2NnLixAnT2xcUFBj2HpxOJ++++67pY+bk5FgxARO0tLTwq1/9CoB/njDQUAX/dq4PgLKysoBz++KLLwLwLUdiSEMFaPMoPP6JuhZetWpVyP3HzVgPHjwIwLxRxndpkxSOdfUDcOutt2KzGTf4K8mRI0e4+eabY95PQ0MDeXl5Ub3X6XQybty4mI/51ltvMX/+/Jj389fEc889B8C/XmsnIwHkIBfWJimc7O7nN04PAI8//rj2mtPp1LZ/5Fo7oC5MpaDtX72kbltaWhr2hho3Yz127BgA01PNZYMaumUAioqK4jWkIeO1114DCLv+iIRdgg9dXk55oLq6Ompj3bt3r/b/JRHWTOHo8KrroZ07d1rGagCn08mzzz4LRJ5VK8+rxlZUVBRgbM8//zwAczJsFKars2rwHlxeWHtanVUfffTRsGOJi7G63W7NJ/+bDJuh9aq45va1q75+YWFhPIY0pPz2t78FYPvUFG7JMO4F3PdRD6ecHrKzs6Pepra2FoCHJ9p5dkqS4WPucXqp/aibqVOnGt72rxnhwj480c6kJGnArApwtleh8oLqAv/4xz/W/u50Otm0aRMAm7IHnjMFSJAU9rSrhl5YWMicOXPCjiUuxtrS0qIeLE1iTIKxmVWY9ZuX1Zn1ix4FlmWZxsZGAK61q5/VyM3JLSvUfa6enGnTpkV9zKNHjwJwc5rxY9okhWNu9fu9/fbbo97urx23283GjRsB+N6ERCDQhRXG9suLqqEWFhYyd+5cbftXXnkFUGfV20clDDB0CfU8bjmnzqrl5eURxxMXY62vrwfgtoxEEiTjmaCT3ep6tbCwkNTU1HgMacgQ7n5+iuS70xpLUV3w9HPKA7m5uVG7wB0dHdp3fKuJmRxgr+/unZ+fb2p7M8iy/IWPP0Ri9+7dgLrsEIEh/dmWUAND5WdUYy0vL9c+r9vtZu3atQCsv8ZOgqSEjADvcXpp6FbIy8vj7rvvjjieuCqYjnTJrD/di9eAvSZI8EmvaqyLFy/W/u52u3n//fepqamho6MjnsMMPH5CAlOmTGHGjBnMnDlzwM1i165d1NXVae89efIkAAWp6lcXHCyIhAhECB555BG8Xu+g4zt37pz2+4TE0NHESLi8cLhLgeQUKioqBn1/UVERzc3NXLx40dBxBOPHj+eBBx4YoMRxOp28+OKLpvd7ww03sHr1au0c1dbW0t7ebmpfAMXFxWEnB7fbrbm0j/oCQ3rErCoCQ0CAsYm4hgO4e2xiSPcZ4MmzPQBs2LBh8BtbPJQd69ati1m5BCjNzc2KoihKZWVlXPZn5qe8vFy5dOmSoiiKsnnz5rDve3lqsqJ8LUPxzhoZ9Y/ytQzl4Yl202MrHZNg6pgHp6de8e8xNzc3QMXj9XqVvLy8mPdbVlamKIqirF+/PuZ9ZWZmKl1dXSGv6Z07dyqAsmRs+O/886IMxeHb17Zt27Rtu7q6lNzc3IDrxKPbzuM7L9X5vvOSnBJ2HHpiVjC1tLRw3XXXMTURHpyURJdsbPs+RXUjioqK+OMf/8jSpUvZt28foLqa3xydSFaisZnECK0eheNuWVszA2RlZbF//36++93vUldXx9oJdq61+8fQpyisGm9not3Y+twmKey46OFTo6Fc3zFnptm4a2yC4Zn1wy6ZNz7zYJcG306cj2sSYd1E44Gsy7LCU75846VLl7TZVSiAZqZJ/L1j4Ew1GOf61CBObm4uhw4d0tJYFdn2qD5XMP95vpdTHqipqRkQ1JFlmRtvvJGmpiaq81OZN3pg0FScy3881TPgs+7du5dFixbhAE4XZZBqGzg+m6RwT2M3+z7zUllZyZo1awYdc8xusBBD/OMEO2smGj8J9Z39lJ/pw+VysWjRIqqqqpiaCDu/lGoq0moWlxfe6PCw7EQPra2tAXnUZ6ckh1yLh3NtwiErEivGJ8Y0TqOGClCYPoLC9OgM72S3ej7mjkzksUnGz+fbHTJPnesjKysrQNwi1tx/77Cb2u9LF/xrbiGGz0mCH4aIsg6GywvP+AQIkydPHvD666+/TlNTE4VpUkhDBfAqEhUtqqFWVlYGuPyPPPIIAD+6PpmMBPAqA/OqmtopOYVly5ZFNe6YjVUoamamqYYV7cWkoPr8VR3qmq2xsZHGxkbmZNh4Iy/Vl3weuhlVPw4JSLXB0nGJzM5I4JajnXzqW4qUjLKFDA6Y5Up8JrPHtEkKB12qh1HqUM+nN0ReMNL2b11Wz2dZWVnAGkys++eOMnadiP2+4ZPxlZSUcPz4cQDuGWM3NcaTPf04UYN8kyZNGvAesVb94aRkwH+N6Pexx6nmyoEAY6uurqapqQmAb41LDJlXBb/aafPGDeGrbIKIuZ71T3/6E0BYGVU4xDv/3BnoN/9mWsoVM1T9OEA95qQkiXe+nKb9bfbI4RvNNMP+z9TzMS1Z/dxGz8KbHeoVPGPGDO1vsizzxhtvAGq6y0yA7D2fsc6ePVsz/HmjzI3xuC+NNWfOnAFBndraWurq6ihMk3yBodDGttkXGCovLw8wtp/97GeAX+0U7HwFq50eeOCBqMcdk7E6nU6qqqrIT5GYkmz8onZ54Xft/mhoRbbdVDoEBn4pZpEViRtSRvCwz6W/LSPuJb+mMfoZjb7f5YW6zz1ckwg3JMcQdSZQ3HL27FmampqYk2FjUpJkaFw2SeGCR50JQa33rKqqAuAmk2q5d11+Yw3mmWeeAeChiUkkSErAWBXfeN7ukLXPuXr1au31I0eOaPEWoXYK9Q0KtdP69eujnlUhRjdYrB2+OTrRsKsoToKektHGhyNcFLGmdPlsX9iYERdJ7A/g9pE2tp6HaSkjfPv0n7ZQAYNocBtd5Oowc0zJ4DFP9qg54CVjEwwfzyYpmmQUAgUfIq7x1XRzM6FwzXNzcwF1yeTAXBoL4BetfsWQHr2xLcu0IwetNcX/n/aJGFauXBkg4tmyZQsAayeEVzu1efxqp29/+9uGxh2TsQrXpijD3B3u7cuBLvD1Ju7m4t3Pn+/T9JWgRpJ33JBKYfoIQwYr3ufyfdPZhzsDXp+TYaNmurESQIB2bz/j/9w5+BtDkJMEx2aEjipGQgGm1Lm0WSla5o6yYTOxThdLmrKysoD8ZU1NDQB3mKjIUver3tRXrVrFkSNHAFiSlRhSVD8YZ3v9GwTLPYUGuHJKUlgRQ31nv5Y5+MEPfqC9pi+DWzsxdBDRJim86DPUlStXRi2KEcRkrIcOHQL8wSWj1OvyPCWjbIaliqB+AU+e6dVUJIKGboWHTvdQMz3V8J0c0NIrubm55Ofn09DQQFNTEwvGxFZVlJmZGXWZ2uXLl6mrq+O2dOMXpk1SONurRG+oySnQ0w1Afoqx8ymG9Y7vIp4+fXrA6/v37wfUuIZRZEWi+rI6E375y1/WqrvMFIzYJIWjXf6CEb0L2tLSwo4dOwAo8wWGQqEvg9MbW7RlcOI6ffDBBw2P37SxOp1O9lW9BcD1yTbDdzivInGgw6/+mDcqwVTUNVjude+993L8+HGWL19Og0s2Hag65zPWhx56iDVr1lBSUkJTUxN/k27uQhazTnl5eVQ5NYDt27dTV1fH344xdzN81+WPzO7evRtZDp0Et9lsASV4oXSskZBQlx/v+OIPCxYs0F5zOp3U1dXhwHgQElSPpKFbHczs2bM1BdbXTMYSxHr1rrvuCvi7ENxvmZxEZuJAFzY4MPT9739fe62lpWVAGVww+jK4srIyU3XFpo314sWL0NPNtxyJWqcHI6fhdI9Mi67v1FwTLpJNUqi+7A9QvfTSS1T85BkyM9ROE1kp5gxVViSO+O7AY8aMwe12a0GN6Wnmot7/5VRvKPoo6WDs2bMHUNfNZjjqm81nz54NEFHOJtzLwjTJVPxBpEMg0L3U4hoO4/llm6TwZ59xiVlM5GtvSDb3nRz23TTFdwKBxeWrs8LPqv/uy/UWFxcHBKe2b98OqN6hKIMLRl8Gpzd0I5g21vfffx+AWSPVL82IWdgkhePuwOBSfoqx0jrBe5+r+3EA3tZWHEC/z52bPyrR1NpLAWp9F0lhYSGHDx8G1PXqWBOuussL9b7o4cyZM6Paxu12a8GOmenGZjoI9Fz0F2Y4RL580Vhzog2RDikuLg5wL8V+zXoHh7v8+21oaADU85Bqk3B5hXIwOi7Lirbe1JcKCmN7eKI97Kx6tldh63n1hvvYY49przmdTm22r5gcWqBh05XBBRu6EUwb64cffghg2C0U6INLJaNspoIFsiLxo8lJ/CjMlyTeYwQRRBDk5ORQXV0NQEGa8cCLmHVAXf9GW1XU1tYGqBemmeXBhb5+7QYxWN2sLMtavtxo/EGcMpGfnTVrVsDrwlhvSo2tWmjGjBn09anG0uCSKTrqoqc/0pYD6fNVmOTl5WliCL2xiTK4ULzgCwwVFRWFLIMrTJO4JUwtt1dXBqc3dKOYNtbnfvEfgLkILqAFDcBcKxiB2TRKJMQsUVRURGpqKr///e8BfxI+WNEyGO/51o4rVqyIehtxkZsNaIlASmlp6aC5vI6ODs3NN9o8QLxTrOX09bJut5tX96rfXTzyttOnTycvL4/GxkacXebTYJWVldqSQBhbpMCQy4umd37iiSdClsGFUjsJlZ4ogyssLIypS4cpK2lpaYGebkpG2UK6DYNxtlfRggZgbr06lPzWqRrXPffcAzAgCR/tJSc+4fs+V91IUEGodMwGtIT7eMsttwy6jXAvzTQPgMB0iN69FNdJ6ZiEkBrZSATnbbOzs7HZbBw7doxjx47hcrkMjxNUbbG4ebndbtY+qqZfQvVHEsYmZtXMzMyAMjhR75qfImllcKHyshs+8audYsGUsYpgxEwTLrBNUjjRHei/mJ2dh4I2j6K1k1y8eLH2WQGmGIx6a1FSX2eIaI1VluWYA1q7Lw2c6cIhanS/mq5G5I1qbcUsnpmZGSASEHGN2zLMiSGO+AJk+nWwzWaLW4fG3bt3Q083S8YmhOyPJM6fEP1v2bIlYFb96U9/CsDj1yaF/N6E2qmhWxlg6GYwZaz+JLc591WvBy4dk2B4dhZ3PzPBo0joo8uik8OuXbsAVdVjVqX1qUd140KJxkNx9uxZGhsbmWlypnN50TyXaDpDiKjzNwxqbcUpE+mQ4OoREdcw6zmJIo+vf/3ryLLMli1b+Oijj0x1n5BlmSVLlrBw4ULt9yeeeAJQpYHBaC5suwcn6o1o6dKl/rFVVWlKqkURNMRC7aQ3dLOYsrZ33nkHgOwkc4aiN9bbTJTBCRndZdlYNHAwkkbAL31StIceeghQW3cCFI823hkC/FK5uXPnRn2yhDxvpsmZTh/QikZ7qkWdTYpbRDpE35nS7XZrCjcznpPLqz6hAdS8bUVFRVRdLiKxY8cOrVP+66+/TmtrKzNDlMHpz7GoV33wwQcDgoNiLJumJIUtgzvk8tdJi5tELBg2VqfTSX19PVMTzYkhgsX7ZvOrT53r1Rb9Q8H8+fORZVlTaRWkGU9RgX/WMdKoTKh0zM50Yka67777Bt1GNH8Dc25+m8efDtFrbdva2jTxvtF0l7jhiDLF7OxszcN5eWqy1qjOCC9c6ON37V7q6+spKCjwp1uyk0N+LpukaEsJCKyOqa6u1vK9ZRHK4J4RZXCbNxsS7IfDsLGKYMS8scZzmPq7vsDselWse/Vh+HjgdDpZv349eXl5tLS0aK6OmXHKisTr7dHnOgUi+mx2phNiiGhuEOKpAmbqdm2Swse+85mVlRUg3hdr/a+mG0t3iXvFiR7/bN3Z2anViJop3pcViR+0qLn3WbNmacaWnyLxzTGh+yN5FYkXfNUxwWVwTz/9NKBWiQUv4YT7fLK7X5uUjJTBRcKwsYr16jdMrkNEGkNgJpqsn53vvPNObrrpJlNjCcbhcHD33Xdr7qp4dOV1JteO5/v8s0NFRQWjR48mMzMz7Pvz8vKYP3++Fgk2WlUiAiIHfGmUgwcP0tmpFg+Een6Q3W7XUhelY83FH4Qe+Ctf+QrvvfcefX192O12bR1sVrz/x8t+WeAnn3wCqHEDMJ47P9/Xr6WAcnJyWLlyJaB2mQilvrNJCv/d7tWEMfoyuNraWi34t2r8wKbf4reffuqXwMZjVgUTxircwmkG61eD0xigJvyNEjw7i0qJeFFaWqrNbILrkszNOnqEdnQwdu7cSVZWFq2traZyyD2KX7wvet5Gg1HxvuBtX0CuqqpKu4j1mGlK4FUk3v3cX2wuJgizSyYRrS4rK+PEiROaVvnvHAPL4ARbfC7sunXrAiLcP//5z4HwTb+F2kmU4ekNPVYMGavT6dSCEUaT3MF3fYDxJhuhdXgVvuVIJD2OdeGdXjWxv2/fPpxOJw6Hg6QkVRllor+Zr+sEHJyeyt52Ly09Cr2KgktWuOTtRyIwkNHdr0ZwDxw4QHp6uvZEPiMoqJ7KiZvT2H3Jw1/c6jH7FDjXJ4e8KA93KTgwniIC1ag+dssUpqnb6bdWgHEJI7jeRFOCC31+8f7UqVM1t9NszvmYT9o6ffp0rZPDpikD0y3ChT3kkrVZdf369dr+9GVw0aidgg09Vgxd7kKUvWSsuSS3vuLfLLKiRu/mjY6vkOK/2738xukhKyuLlJQUAC3619QjmypilxVVghbc+M0bZBQJuk55ubm59PX10dTURLu331BwRvId8/pkGz/MDtwu+JgSatfDmUe7yDHh5osbTeNXRxrabrB9JkgK/9Ppz9tmZmZqM7bRuEFwEQWgCfZDBYbE/5+J4WlwerVTvNaqAkNnSEjg5prsfSNUNbm5uWRmZtLca7BvqQ9ZkeL6A/6775133qkZ6aRJkygqKqKhW+F0j7Gxiu8m1PEk3+uS7n2N3X6VU0lJCQAf9/RjC2otYvY7Cj6mTVK0FNrnJlwHSfdvpB8ziEd9LFu2TAuAxVpEkZmZqS1vRBlcuP5IIh6ifxpcqDK4UNuLWbW0tNRwcflgGPr0ovrErHhfVMgsXLiQ7OxsDncpBMWbrhqie56+KsZms2l63gMd3gHr0HghK5ImWC8oKNDE8Nsvqn8bKm2XKP4/5VFLFofq80WL+JxVHf5IsOhkOHukzfD49PGNtrY2LXC3Oisx4Hh6RGAo+NGLwlDDqZ0gUO0U6WlwZonaWN1uN3/4wx8A8+Vsf/C5I4sWLdIqF/a0e7STcLUuFa8iaWuU4BSLUOWsPd3Lye7+IRmrKLAWbl9eXh4rVqzgF60e3u6Qh+SYwcX/4iK92ufC5Q0sTzxw4AAARSYniODumaIMLnhZAGrPZBEY0ndyCH7sIwR+P6KRmlA7xVIGF4mojbWlpYXW1lZKRtlMNdM62d2v9VmdPHky69atA1SFiLggEyQF21X4OdoVKBjX43A4/EXgH3QNyVhFrvLWW2/VXPCtW7cCML/BzR5fYUE8j3mhr18r/s/KyuIXrR7Wn+7F5SVun88oetec5BTGjx+vtYQRzdaMHr8mqM/X+mtUYwu+gm2Swi8v+p+xqq+OEWtVvdopeK3rVSQe9qmdYimDi0TUASah2JhpMMktONPr72kkFu3btm3j/vvvZ36DmyVjE5g7ysa4RIlkE49DMItd8quMwsnzFi5cSGVlJWvXrtXGWjw6gYK0ESTGYaxv+hRH+qcAOBwOPvjgA26++Wbu/aibORl9/MO4BPJTbIxOiP2Ywihyc3Oprq5m/vz5bG1qYuv5Pv71WjtfSRthOD2nZ3yixES78XGKSpvS4jvo7Oykra0NB3Cur5+LHmP78yj+x2sC/FNWYthWt20eJaAMTuB2u9m4+UdAaLWTvgzOiT9XPhQYNtbZBnOj4v76um9NqHcPVq9ejcPh4Dvf+Q6/a2sLkCFeDYQeOBhZllmzZg0zZszgySef5HdVVUMy1nvvvTfg94KCAi5dukRFRQXPPfec5h7Gk1WrVpGTk8OpU6d4/vnneeGFF3hKJ0E0y2s3prDIYbwH9Jsd/tI+IeRwArcec8c8pn+5Jnx/JNF1MPjRi6IypzAttNpJzKqiDO6pp56KeZzhGPTBVNu3b2f37t1U1b4LPd2cmZlu6IFM4s5z+zE3tS6ZnTt3DtCsut1uDh8+TE1NjdYN4Eozbdo0li5dGpXYvrGxkfr6epqbm+M23jvuuCPiOsfpdHLkyBEOHjwY8zHtdjvt7e2cPHkyIBCSkZGB0+nk4MGDHDp0iFOnTg16rKZzn2pdEfV8HuaBTJFwywpf+sDFp7oHRm3fvp3777/f0H5CUTLKxoGbQreQdcuK1rI1+PqUfJ7TK9OSWTouMWwZ3PwGN7m5uaargqIhorGKJ38BTE2E0nF2np2SFFPPXFH1YHH1cDqdzJkzJ0DEH5bklMivhzDUN76Uwl1jEwznpkXeFwKfyhauK2Mkgjs2HpyeGrLtik1SeOmChwc+VmdGr9erGduuXbtYvnw5DuDCrJEhP4tNNxFt27YtroqlYCK6wSLHVZFt157WJSuSoTIxfQAFBvaUtbjy7N+/PzpDhZDGGEx+isQk+whKxyawaKx/XWjEUG2SEiDe18cOzM5UQve8ZGyCJkwJDnzJikTFGf/T4MSxZFnm17/+NQBbp4Z+iiAQoHbS17sOBVGtWUVjB3FXMho2EGLv0tLSYf3Y+v8vCMnoazemaFFWoyT5VkLJkkRwC18z3SQB9jlDp8/McvnyZQBO98r83V+6Q8pGO7yKVmwRXDx/9uxZQG3zI1r96LFL8D9d6t8rKyujboZnlojGKio2YuVPvjuPUOZYXD1kWdaaB9w2Uu2hZWo/OoOM4RE+gF83HqrpWiwsWLCAjRs3Ut+lUN8VOSC4bdu2AbP5fffdx8aNG7U2P+HIy8uL+hmrsRDRWEWJmBmEq+zyon3YeMuvLIxz4sQJWltbKUyTfOWJV7/3lU1S+I2u0Lu4uDgu+y0oKKC5uTmgj1YocnJyQsZRNmzYwIIFC9TGbxEoLi4e8lkVonSDR5ls96k/CZmZmQN6ylpceUQc4pujVcmd0TY18UDfQwvUIgoR4Nm2bVtcL/ycnJyYKl8KCgq+MAHRqIxVNCwwqkqp7+zXTkJ5efkVuftYREbUhop8ebjAyZXgZHc/uy95tGcVlZWVDWk0dbgTlbF+3KPKBaPNyXsUhTc7vNpJKC4u5nvf+57pQVrED9Hp/0yf2g1hqPm8X0E8htfdDxc9/fzFrXDA6Qkol9y8eTMbNmwY8vEMZ6Iy1q3n+7TnfBiluLiYV155xYoCf0GYO3cuO3bs0Dyeq0lhYSGLFy9m+fLlcS3S/v9KRFGE2+1m6dKlWrc9I8ybN49ly5bFpQWjRXypra3V+hpdSSZMmIDD4WDMmDGkp6fHrTfRXwuDyg1BNVqjWOtTC4v4EpWxWlhYXH3MPZHWwsLiimMZq4XFMMEyVguLYYJlrBYWwwTLWC0shgmWsVpYDBMsY7WwGCZYxmphMUywjNXCYphgGauFxTDBMlYLi2GCZawWFsMEy1gtLIYJlrFaWAwTLGO1sBgmWMZqYTFM+D9x5/sbpysA9wAAAABJRU5ErkJggg==;imageBorder=default;imageBackground=default;" vertex="1" parent="1">
          <mxGeometry x="560.82" y="320" width="98.37" height="36" as="geometry" />
        </mxCell>
      </root>
    </mxGraphModel>
  </diagram>
</mxfile>
